<?xml version="1.0" encoding="utf-8"?>
<!-- Generator: Adobe Illustrator 12.0.1, SVG Export Plug-In . SVG Version: 6.00 Build 51448)  -->
<!DOCTYPE svg PUBLIC "-//W3C//DTD SVG 1.1//EN" "http://www.w3.org/Graphics/SVG/1.1/DTD/svg11.dtd" [
	<!ENTITY ns_svg "http://www.w3.org/2000/svg">
	<!ENTITY ns_xlink "http://www.w3.org/1999/xlink">
]>
<svg  version="1.1" id="Layer_1" xmlns="&ns_svg;" xmlns:xlink="&ns_xlink;" width="578.667" height="448.716"
	 viewBox="0 0 578.667 448.716" overflow="visible" enable-background="new 0 0 578.667 448.716" xml:space="preserve">
<g>
	<g>
		<path fill="#E8E8E8" d="M89.938,0.042L332.729,23.39c3.83,0.368,6.764,3.782,6.553,7.624l-19.044,345.335
			c-0.213,3.842-3.505,6.957-7.354,6.957H94.979H35.948c-3.848,0-7.294-3.103-7.693-6.93L0.06,107.442
			c-0.402-3.829,1.261-9.334,3.714-12.299L78.56,4.745C81.013,1.78,86.107-0.326,89.938,0.042z"/>
		<path fill="#817F7F" d="M117.919,374.015h179.205c7.697,0,14.279-6.229,14.703-13.914L329.13,46.366
			c0.424-7.685-5.444-14.513-13.105-15.249L106.49,10.967C98.828,10.23,92.81,15.87,93.05,23.562l10.5,336.524
			C103.79,367.778,110.224,374.015,117.919,374.015z"/>
		<path fill="#E8E8E8" d="M283.418,263.441c3.057-39.548-27.862-73.332-69.061-75.458c-41.196-2.125-74.44,29.5-74.251,70.637
			c0.188,41.138,31.107,74.922,69.059,75.458S280.361,302.989,283.418,263.441z"/>
		<path fill="#DA1864" d="M238.243,261.922c0.753-14.801-10.675-27.286-25.521-27.888c-14.848-0.599-27.134,11.087-27.44,26.105
			c-0.309,15.018,11.118,27.505,25.521,27.887C225.207,288.41,237.492,276.722,238.243,261.922z"/>
		<path fill="#DA1864" d="M370.67,234.812c-0.472-3.141-0.995-6.264-1.599-9.362c-1.003-5.146,3.126-12.69,9.558-16.918l8.2-5.389
			c6.431-4.228,13.485-2.037,15.269,5.026c1.073,4.25,2.022,8.545,2.852,12.881c3.133,16.39,4.457,33.379,3.682,50.759
			c-0.976,21.714-5.105,42.554-11.922,62.102c-2.534,7.268-9.896,9.124-15.923,4.339l-7.689-6.101
			c-6.028-4.786-8.758-14.528-6.727-21.953c3.504-12.804,5.656-26.188,6.276-40.001C373.183,258.132,372.407,246.325,370.67,234.812
			z"/>
		<path fill="#DA1864" d="M468.288,390.312c-3.226,6.989-11.013,8.636-17.041,3.851l-7.021-5.57
			c-6.025-4.786-8.154-14.266-5.158-21.354c12.322-29.157,19.516-60.565,20.964-93.136c1.223-27.274-1.683-54.093-8.325-79.803
			c-1.288-4.983-2.706-9.929-4.266-14.825c-2.333-7.333,0.635-16.586,7.069-20.81l7.49-4.921c6.432-4.225,13.937-2.116,16.392,4.85
			c1.481,4.202,2.869,8.436,4.189,12.693c10.332,33.333,15.05,68.524,13.439,104.428
			C494.221,316.011,484.691,354.755,468.288,390.312z"/>
		<path fill="#DA1864" d="M578.277,279.388c-2.639,58.851-18.382,114.036-44.163,162.998c-3.587,6.811-11.599,8.335-17.629,3.551
			l-6.699-5.316c-6.028-4.782-7.874-14.111-4.421-20.989c21.539-42.912,34.646-90.871,36.926-141.847
			c2.2-49.189-5.905-96.478-22.305-139.856c-1.121-2.964-2.278-5.912-3.474-8.838c-1.98-4.856,1.504-12.169,7.937-16.396
			c0,0,7.146-4.699,7.149-4.701c5.301-3.485,11.964-7.104,15.317,0.656C569.489,160.898,580.987,218.823,578.277,279.388z"/>
	</g>
	<path fill="#E8E8E8" d="M263.248,104.959c1.399-23.405-18.434-44.061-44.299-46.133c-25.865-2.075-47.062,15.663-47.343,39.617
		c-0.284,23.954,19.548,44.609,44.295,46.135C240.649,146.103,261.845,128.364,263.248,104.959z"/>
	<path fill="#DA1864" d="M234.36,102.906c0.388-8.713-6.942-16.348-16.371-17.05c-9.429-0.701-17.263,5.853-17.498,14.642
		c-0.233,8.789,7.096,16.422,16.373,17.05C226.138,118.174,233.971,111.62,234.36,102.906z"/>
	<path fill="#817F7F" d="M51.283,374.015h20.176c7.696,0,13.741-6.236,13.501-13.929L74.918,38.176
		c-0.241-7.693-4.413-9.122-9.319-3.191L17.864,92.688c-4.907,5.93-8.232,16.943-7.431,24.597l25.462,242.871
		C36.698,367.81,43.588,374.015,51.283,374.015z"/>
</g>
</svg>
