<?xml version="1.0" encoding="utf-8"?>
<!-- Generator: Adobe Illustrator 12.0.1, SVG Export Plug-In . SVG Version: 6.00 Build 51448)  -->
<!DOCTYPE svg PUBLIC "-//W3C//DTD SVG 1.1//EN" "http://www.w3.org/Graphics/SVG/1.1/DTD/svg11.dtd" [
	<!ENTITY ns_svg "http://www.w3.org/2000/svg">
	<!ENTITY ns_xlink "http://www.w3.org/1999/xlink">
]>
<svg  version="1.1" id="Layer_1" xmlns="&ns_svg;" xmlns:xlink="&ns_xlink;" width="55.229" height="55.228"
	 viewBox="0 0 55.229 55.228" overflow="visible" enable-background="new 0 0 55.229 55.228" xml:space="preserve">
<g>
	<path fill="#FFFFFF" d="M54.649,22.081c-0.003-0.018-0.007-0.039-0.013-0.061c-0.551-2.673-1.482-5.206-2.749-7.537
		c-0.016-0.028-0.032-0.057-0.048-0.085c-0.386-0.699-0.802-1.381-1.244-2.045c-0.078-0.118-0.156-0.232-0.237-0.35
		c-0.171-0.25-0.33-0.507-0.51-0.749c-0.237-0.325-0.5-0.625-0.751-0.938c-0.104-0.129-0.204-0.261-0.311-0.386
		c-0.496-0.592-1.014-1.163-1.558-1.713c-0.045-0.046-0.088-0.096-0.134-0.143c-1.126-1.124-2.341-2.155-3.644-3.072
		c-0.119-0.086-0.248-0.157-0.369-0.239c-0.047-0.032-0.097-0.061-0.143-0.093c-0.657-0.442-1.335-0.849-2.031-1.234
		c-0.091-0.05-0.184-0.1-0.276-0.15c-2.298-1.235-4.787-2.152-7.415-2.698c-0.032-0.004-0.064-0.011-0.096-0.018
		C31.339,0.207,29.503,0,27.615,0C12.388,0,0,12.386,0,27.612c0,1.905,0.214,3.757,0.585,5.556c0,0.004,0,0.007,0.002,0.011
		c0.204,0.988,0.441,1.966,0.748,2.915c0.007,0.021,0.018,0.043,0.025,0.064l0.027-0.007C4.36,45.29,11.972,52.319,21.449,54.489
		l-0.011,0.039c0.172,0.039,0.352,0.054,0.523,0.089c0.171,0.036,0.348,0.058,0.519,0.09c1.669,0.317,3.376,0.521,5.135,0.521
		c15.229,0,27.614-12.386,27.614-27.615C55.229,25.717,55.018,23.872,54.649,22.081z M19.335,30.31l0.019-0.007
		c-0.278-0.853-0.468-1.745-0.468-2.69c0-4.814,3.916-8.729,8.729-8.729c4.816,0,8.73,3.914,8.73,8.729
		c0,4.817-3.914,8.731-8.73,8.731c-0.672,0-1.321-0.093-1.951-0.239l-0.004,0.019C22.659,35.434,20.279,33.204,19.335,30.31z
		 M15.954,31.409c0.252,0.771,0.576,1.506,0.967,2.201L6.639,39.377c-0.769-1.366-1.406-2.809-1.9-4.317L15.954,31.409z
		 M12.623,46.41l7.35-9.217c1.412,1.131,3.079,1.952,4.898,2.369l-2.635,11.49C18.664,50.235,15.396,48.626,12.623,46.41z"/>
	<path fill="#FFFFFF" d="M27.615,33.757c3.385,0,6.144-2.759,6.144-6.145c0-3.387-2.759-6.142-6.144-6.142
		c-3.388,0-6.143,2.755-6.143,6.142C21.473,30.998,24.228,33.757,27.615,33.757z M27.615,23.198c2.436,0,4.414,1.98,4.414,4.414
		c0,2.437-1.979,4.414-4.414,4.414c-2.435,0-4.414-1.978-4.414-4.414C23.201,25.179,25.181,23.198,27.615,23.198z"/>
</g>
</svg>
