<?xml version="1.0" encoding="utf-8"?>
<!-- Generator: Adobe Illustrator 12.0.1, SVG Export Plug-In . SVG Version: 6.00 Build 51448)  -->
<!DOCTYPE svg PUBLIC "-//W3C//DTD SVG 1.1//EN" "http://www.w3.org/Graphics/SVG/1.1/DTD/svg11.dtd" [
	<!ENTITY ns_svg "http://www.w3.org/2000/svg">
	<!ENTITY ns_xlink "http://www.w3.org/1999/xlink">
]>
<svg  version="1.1" id="Layer_1" xmlns="&ns_svg;" xmlns:xlink="&ns_xlink;" width="510.003" height="387.262"
	 viewBox="0 0 510.003 387.262" overflow="visible" enable-background="new 0 0 510.003 387.262" xml:space="preserve">
<g>
	<g>
		<g>
			<g>
				<path fill="#DA1864" d="M342.864,98.272c0.375,2.213-1.113,4.314-3.33,4.691l-64.538,10.981
					c-2.216,0.376-4.314-1.114-4.692-3.328l-8.747-51.422c-0.379-2.214,1.112-4.313,3.326-4.691l64.54-10.979
					c2.215-0.376,4.316,1.112,4.693,3.327L342.864,98.272z"/>
				<path fill="#DA1864" d="M149.354,98.272c-0.377,2.213,1.111,4.314,3.326,4.691l64.541,10.981
					c2.213,0.376,4.315-1.114,4.691-3.328l8.747-51.422c0.378-2.214-1.112-4.313-3.326-4.691l-64.542-10.979
					c-2.213-0.376-4.312,1.112-4.691,3.327L149.354,98.272z"/>
			</g>
			<path fill="#DA1864" d="M209.271,97.481l33.814,19.305v128.4c0,1.669,1.354,3.022,3.023,3.022c1.671,0,3.023-1.354,3.023-3.022
				v-128.4l33.816-19.305c1.182-1.181,1.182-3.094,0-4.274c-0.592-0.59-1.364-0.885-2.137-0.885c-0.775,0-1.547,0.294-2.137,0.885
				L249.13,110.31l-6.046,0.001l-29.54-17.104c-0.589-0.59-1.364-0.885-2.137-0.885c-0.772,0-1.547,0.294-2.137,0.885
				C208.091,94.388,208.091,96.301,209.271,97.481z"/>
			<path fill="#DA1864" d="M460.438,235.143c0,4.18-3.613,7.568-8.072,7.568H322.424c-4.458,0-8.069-3.389-8.069-7.568V126.361
				c0-4.18,3.611-7.569,8.069-7.569h129.942c4.459,0,8.072,3.389,8.072,7.569V235.143z"/>
			<path fill="#DA1864" d="M172.92,242.834c0,2.693-2.183,4.878-4.877,4.878H51.678c-2.694,0-4.876-2.185-4.876-4.878v-62.555
				c0-2.694,2.183-4.878,4.876-4.878h116.366c2.694,0,4.877,2.185,4.877,4.878V242.834z"/>
			<circle fill="#DA1864" cx="76.646" cy="25.995" r="7.768"/>
			<path fill="#DA1864" d="M166.451,359.236l-51.449-51.45V203.898c0-2.54-2.06-4.599-4.598-4.599c-2.54,0-4.6,2.059-4.6,4.599
				v103.888l-51.449,51.45c-1.797,1.796-1.797,4.709,0,6.503c0.898,0.898,2.074,1.348,3.251,1.348c1.177,0,2.352-0.449,3.25-1.348
				l44.947-44.945v50.017c0,2.54,2.06,4.601,4.6,4.601c2.538,0,4.598-2.061,4.598-4.601v-50.018l44.946,44.946
				c0.899,0.898,2.076,1.348,3.252,1.348c1.177,0,2.354-0.449,3.251-1.348C168.248,363.945,168.248,361.032,166.451,359.236z"/>
			<path fill="#DA1864" d="M113.384,335.487l-34.302-34.304V16.592c0-1.693-1.373-3.065-3.066-3.065
				c-1.693,0-3.067,1.373-3.067,3.065v284.592l-34.301,34.304c-1.197,1.196-1.197,3.138,0,4.335
				c0.599,0.599,1.383,0.898,2.168,0.898c0.785,0,1.568-0.3,2.167-0.898l29.965-29.966v33.348c0,1.692,1.374,3.066,3.067,3.066
				c1.693,0,3.066-1.374,3.066-3.066v-33.348l29.967,29.966c0.599,0.599,1.382,0.898,2.167,0.898s1.57-0.3,2.168-0.898
				C114.581,338.625,114.581,336.684,113.384,335.487z"/>
			<circle fill="#DA1864" cx="246.077" cy="245.07" r="113.256"/>
			<path fill="#DA1864" d="M350.903,245.07c0,57.893-46.934,104.823-104.828,104.823c-57.893,0-104.825-46.931-104.825-104.823
				c0-57.896,46.933-104.826,104.825-104.826C303.97,140.244,350.903,187.175,350.903,245.07z"/>
			<path fill="#DA1864" d="M443.12,359.236l-51.449-51.45V159.74c0-2.539-2.061-4.599-4.6-4.599c-2.541,0-4.598,2.06-4.598,4.599
				v148.046l-51.451,51.45c-1.795,1.796-1.795,4.709,0,6.503c0.898,0.898,2.074,1.348,3.252,1.348s2.354-0.449,3.252-1.348
				l44.947-44.945v50.017c0,2.54,2.057,4.601,4.598,4.601c2.539,0,4.6-2.061,4.6-4.601v-50.018l44.945,44.946
				c0.898,0.898,2.076,1.348,3.254,1.348c1.176,0,2.352-0.449,3.25-1.348C444.915,363.945,444.915,361.032,443.12,359.236z"/>
			
				<ellipse transform="matrix(0.926 -0.3775 0.3775 0.926 -6.5439 32.1199)" fill="#DA1864" cx="78.671" cy="32.754" rx="84.903" ry="7.265"/>
			<circle fill="#DA1864" cx="425.675" cy="58.799" r="7.768"/>
			<path fill="#DA1864" d="M463.673,341.795l-34.301-34.304V45.61c0-1.693-1.373-3.065-3.066-3.065s-3.066,1.372-3.066,3.065
				v261.881l-34.303,34.304c-1.197,1.197-1.197,3.139,0,4.335c0.6,0.599,1.383,0.898,2.168,0.898c0.787,0,1.57-0.3,2.168-0.898
				l29.967-29.966v33.349c0,1.691,1.373,3.065,3.066,3.065s3.066-1.374,3.066-3.065v-33.349l29.967,29.966
				c0.598,0.599,1.381,0.898,2.168,0.898c0.783,0,1.568-0.3,2.166-0.898C464.872,344.934,464.872,342.992,463.673,341.795z"/>
			
				<ellipse transform="matrix(0.9691 0.2466 -0.2466 0.9691 29.372 -103.4389)" fill="#DA1864" cx="427.7" cy="65.558" rx="84.905" ry="7.265"/>
			<g>
				<path fill="#DA1864" d="M339.503,384.414l-49.037-59.023c-2.781-3.35-2.322-8.321,1.027-11.104l0,0
					c3.35-2.783,8.323-2.324,11.104,1.026l0,0l49.036,59.022c2.783,3.35,2.322,8.321-1.027,11.104l0,0
					c-1.473,1.224-3.258,1.82-5.035,1.82l0,0C343.308,387.261,341.062,386.291,339.503,384.414L339.503,384.414z"/>
			</g>
			<g>
				<path fill="#DA1864" d="M140.094,385.442c-3.351-2.784-3.81-7.756-1.027-11.106l0,0l49.035-59.022
					c2.783-3.351,7.755-3.81,11.104-1.027l0,0c3.352,2.783,3.81,7.755,1.026,11.104l0,0l-49.035,59.023
					c-1.56,1.878-3.807,2.848-6.069,2.848l0,0C143.353,387.262,141.566,386.664,140.094,385.442L140.094,385.442z"/>
			</g>
		</g>
	</g>
	<g>
		<path fill="#DA1864" d="M59.956,317.163l3.018-3.021l12.647,12.648l13.482-13.479l3.019,3.018l-16.501,16.499L59.956,317.163
			L59.956,317.163z M59.955,317.162L59.955,317.162L59.955,317.162L59.955,317.162L59.955,317.162z"/>
	</g>
	<g>
		<polygon fill="#DA1864" points="411.12,322.144 414.14,319.123 426.788,331.771 440.269,318.291 443.288,321.31 426.788,337.812 
			411.12,322.144 		"/>
	</g>
	<g>
		<polygon fill="#DA1864" points="359.224,333.73 359.226,333.73 365.261,327.692 385.917,348.347 407.968,326.299 414.005,332.337 
			385.915,360.424 359.224,333.73 		"/>
	</g>
	<g>
		<path fill="#DA1864" d="M82.929,333.73l6.036-6.039l20.656,20.656l22.051-22.049l6.037,6.039l-28.088,28.086L82.929,333.73
			L82.929,333.73z M82.928,333.73L82.928,333.73L82.928,333.73L82.928,333.73L82.928,333.73z"/>
	</g>
</g>
</svg>
