<?xml version="1.0" encoding="utf-8"?>
<!-- Generator: Adobe Illustrator 12.0.1, SVG Export Plug-In . SVG Version: 6.00 Build 51448)  -->
<!DOCTYPE svg PUBLIC "-//W3C//DTD SVG 1.1//EN" "http://www.w3.org/Graphics/SVG/1.1/DTD/svg11.dtd" [
	<!ENTITY ns_svg "http://www.w3.org/2000/svg">
	<!ENTITY ns_xlink "http://www.w3.org/1999/xlink">
]>
<svg  version="1.1" id="Layer_1" xmlns="&ns_svg;" xmlns:xlink="&ns_xlink;" width="365.45" height="670.853"
	 viewBox="0 0 365.45 670.853" overflow="visible" enable-background="new 0 0 365.45 670.853" xml:space="preserve">
<path fill="#FFFFFF" d="M234.229,611.684c6.152-24.406,1.856-68.569-0.488-92.707c-2.339-24.141,14.155-38.918,14.155-38.918
	c21.564-20.062,38.179-59.975,28.573-71.651c-12.227-15.985-22.535,0.825-27.777,7.729c-5.237,6.907-19.104,16.767-34.253,11.682
	c-2.48-0.841-4.884-1.972-6.936-3.604c-1.56-1.227-3.02-2.773-4.19-4.362c-4.553-6.196-2.576-12.655-0.527-19.357
	c0.883-2.883,96.569-280.04,98.326-287.165c5.084-12.839,27.543-17.47,27.543-17.47l10.411-52.866c0,0,29.938-2.12,26.032-25.997
	c-7.296-25.522-29.667-17.081-36.895-8.167c-0.802,0.982-1.932,2.396-3.323,4.135c-0.094-0.214-0.234-0.403-0.434-0.556
	l-2.112-1.635c0.44-0.647,0.4-1.492-0.067-2.089c0.548-1.428,0.127-3.095-1.146-4.079c-1.548-1.191-3.777-0.906-4.979,0.644
	l-2.532,3.276c-1.196,1.554-0.907,3.786,0.645,4.979c1.27,0.982,2.992,0.971,4.231,0.08c0.698,0.298,1.522,0.121,2.036-0.474
	l2.115,1.638c0.188,0.14,0.392,0.225,0.61,0.27c-2.322,2.927-5.155,6.497-8.253,10.416c-0.086-0.134-0.19-0.262-0.322-0.363
	l-2.114-1.632c0.439-0.647,0.402-1.492-0.067-2.087c0.547-1.426,0.128-3.1-1.144-4.077c-1.555-1.2-3.78-0.911-4.98,0.638
	l-2.531,3.274c-1.198,1.556-0.906,3.787,0.643,4.983c1.27,0.982,2.99,0.965,4.237,0.079c0.691,0.299,1.518,0.122,2.031-0.472
	l2.113,1.631c0.126,0.097,0.262,0.166,0.401,0.216c-2.612,3.306-5.37,6.798-8.149,10.322c-0.065-0.077-0.137-0.146-0.217-0.212
	l-2.117-1.633c0.438-0.646,0.403-1.487-0.064-2.085c0.551-1.423,0.124-3.096-1.143-4.076c-1.554-1.199-3.779-0.911-4.979,0.638
	l-2.53,3.28c-1.198,1.549-0.91,3.781,0.639,4.978c1.273,0.982,2.992,0.964,4.235,0.077c0.696,0.301,1.523,0.122,2.032-0.47
	l2.119,1.633c0.068,0.058,0.148,0.104,0.228,0.145c-2.755,3.491-5.501,6.97-8.104,10.269c-0.03-0.026-0.059-0.062-0.097-0.089
	l-2.115-1.63c0.442-0.648,0.407-1.492-0.06-2.091c0.545-1.423,0.122-3.095-1.146-4.076c-1.553-1.198-3.777-0.909-4.982,0.64
	l-2.526,3.281c-1.198,1.549-0.911,3.782,0.637,4.976c1.277,0.981,2.995,0.966,4.233,0.077c0.702,0.298,1.528,0.124,2.037-0.468
	l2.115,1.634c0.029,0.02,0.057,0.029,0.087,0.052c-3.011,3.811-5.781,7.312-8.096,10.239l-2.073-1.601
	c0.441-0.647,0.404-1.488-0.059-2.091c0.542-1.419,0.125-3.093-1.151-4.074c-1.554-1.197-3.782-0.905-4.975,0.642l-2.534,3.275
	c-1.195,1.554-0.913,3.786,0.642,4.978c1.27,0.982,2.994,0.966,4.234,0.082c0.699,0.297,1.521,0.126,2.033-0.47l2.046,1.576
	c-1.614,2.036-2.903,3.655-3.766,4.731c-1.62,2.021-3.004,3.886-4.194,5.597l-2.053-1.578c0.44-0.65,0.406-1.493-0.066-2.091
	c0.554-1.426,0.131-3.1-1.14-4.079c-1.557-1.196-3.779-0.903-4.982,0.642l-2.528,3.278c-1.198,1.553-0.909,3.784,0.64,4.977
	c1.275,0.982,2.994,0.968,4.232,0.084c0.699,0.297,1.524,0.122,2.038-0.475l2.11,1.636c0.036,0.029,0.073,0.042,0.107,0.065
	c-2.735,4.296-4.024,7.362-4.354,9.006c-0.509,2.546,6.617,8.915,6.873,13.41c0.251,4.505-3.777,8.075-3.777,8.075
	s-96.739,251.745-97.163,252.754c-1.495,3.547-10.646,17.738-27.328,11.671c-20.921-8.23-14.959-35.024-14.114-38.495
	c0.841-3.47,8.758-21.784-1.754-27.495c-10.514-5.71-28.468,5.595-37.129,28.254s-8.748,37.318-9.052,64.696
	c-0.303,27.369-4.579,35.681-4.579,35.681c-8.04,25.347-43.92,44.916-69.27,88.713C-31.86,607.86,54.878,639.887,90.027,653.919
	l-0.421,1.146l-1.354-0.489c-0.62-0.229-1.368,0.249-1.661,1.061c-0.299,0.81-0.033,1.655,0.596,1.884l6.041,2.194
	c0.622,0.233,1.367-0.245,1.666-1.055c0.291-0.816,0.026-1.663-0.596-1.889l-1.349-0.489l0.372-1.045
	c18.218,7.367,45.899,12.954,51.836,13.857C216.034,680.188,228.082,636.098,234.229,611.684z"/>
</svg>
