<?xml version="1.0" encoding="utf-8"?>
<!-- Generator: Adobe Illustrator 12.0.1, SVG Export Plug-In . SVG Version: 6.00 Build 51448)  -->
<!DOCTYPE svg PUBLIC "-//W3C//DTD SVG 1.1//EN" "http://www.w3.org/Graphics/SVG/1.1/DTD/svg11.dtd" [
	<!ENTITY ns_svg "http://www.w3.org/2000/svg">
	<!ENTITY ns_xlink "http://www.w3.org/1999/xlink">
]>
<svg  version="1.1" id="Layer_1" xmlns="&ns_svg;" xmlns:xlink="&ns_xlink;" width="470.864" height="606.545"
	 viewBox="0 0 470.864 606.545" overflow="visible" enable-background="new 0 0 470.864 606.545" xml:space="preserve">
<g>
	<g>
		<g>
			<g>
				<path fill="#FDB514" d="M433.272,372.408c-6.736,6.043-27.271,17.336-30.384,2.249c-3.354-16.263,23.594-28.84,30.447-40.59
					c16.166-28.354-17.922-54.117,5.539-85.522c-28.804,21.038-20.406,36.774-20.818,52.881c-0.238,9.34-9.07,29.137-20.887,19.984
					c-16.429-12.734-2.974-34.707-1.9-50.907c1.215-18.283-10.938-48.115,0.339-61.938c-21.986,18.252-5.858,69.579-36.888,78.09
					c-9.487,2.604-20.281-2.614-23.385-12.111c-7.457-22.806,27-42.229,35.33-60.276c19.27-45.992-17.064-99.762,15.982-131.15
					c-33.803,25.248-32.99,60.223-28.54,79.727c9.569,41.963-10.099,62.117-18.158,66.708c-8.068,4.583-21.094-1.96-9.545-23.035
					c11.55-21.076-2.97-49.487-18.305-53.353c8.862,2.234,10.399,29.167,8.102,35.504c-5.7,15.71-21.53,25.827-27.142,41.915
					c-5.548,15.892,5.316,27.781,6.941,43.05c1.604,15.019-12.869,22.419-24.447,10.462c-7.393-7.635-5.827-23.093-1.627-32.043
					c-8.644,9.656-16.051,21.106-12.516,34.485c4.121,15.595,17.621,27.2,20.174,43.566c2.176,13.943-18.025,58.64-31.543,65.319
					c-8.921,35.922-0.388,90.595,25.485,113.886c10.151,9.14,29.787,21.839,43.137,21.867c6.181,0.011,10.232-1.118,12.748-3.096
					c10.657-8.387-6.266-32.013-5.36-48.524c0.957-17.438,7.826-34.303,20.834-46.216c21.611-19.797,52.699-9.737,74.689-29.096
					c22.34-19.661,26.071-45.566,49.288-37.887C461.225,360.001,452.477,355.206,433.272,372.408z"/>
				<path fill="#FDB514" d="M189.278,325.297c2.552-16.364,16.053-27.97,20.173-43.564c3.536-13.377-3.871-24.829-12.516-34.485
					c4.2,8.95,5.767,24.409-1.625,32.043c-11.578,11.956-26.051,4.558-24.449-10.462c1.627-15.268,12.491-27.158,6.943-43.05
					c-5.612-16.086-21.44-26.205-27.142-41.915c-2.298-6.335-0.762-33.269,8.101-35.502c-15.334,3.865-29.854,32.275-18.304,53.352
					c11.549,21.074-1.478,27.617-9.545,23.034c-8.061-4.592-27.728-24.745-18.158-66.708c4.45-19.503,5.263-54.481-28.542-79.727
					c33.048,31.386-3.285,85.157,15.984,131.151c8.329,18.045,42.788,37.468,35.329,60.273
					c-3.101,9.497-13.896,14.715-23.383,12.111c-31.028-8.51-14.9-59.838-36.888-78.09c11.276,13.822-0.877,43.655,0.338,61.937
					c1.073,16.202,14.53,38.174-1.899,50.908c-11.817,9.151-20.649-10.644-20.888-19.984c-0.413-16.104,7.985-31.842-20.819-52.881
					c23.461,31.406-10.626,57.168,5.541,85.523c6.853,11.751,33.8,24.327,30.446,40.59c-3.114,15.087-23.647,3.792-30.384-2.249
					C18.389,350.398,9.64,355.193,0,361.554c23.218-7.682,26.948,18.225,49.289,37.886c21.991,19.357,53.078,9.3,74.689,29.096
					c13.007,11.912,19.876,28.777,20.833,46.215c0.906,16.516-16.019,40.14-5.359,48.524c2.515,1.979,6.566,3.108,12.748,3.096
					c13.351-0.028,32.986-12.729,43.138-21.866c25.872-23.291,34.405-77.964,25.485-113.888
					C207.305,383.939,187.103,339.242,189.278,325.297z"/>
			</g>
		</g>
		<path fill="#010101" d="M348.244,517.536c-2.56-22.336-18.763-55.222-28.444-74.869l-0.027-0.058
			c-6.496-13.188-0.974-25.157-0.497-26.137l0.064-0.131c5.731-11.553,9.36-27.168,9.708-41.774
			c0.292-12.255-1.563-28.115-12.036-34.265c-4.186-2.58-8.282-3.887-12.172-3.887c-3.737,0-10.752,1.287-15.719,9.901
			c-2.318,4.019-3.57,8.509-4.486,11.788c-0.164,0.584-0.316,1.133-0.464,1.631c-1.173,3.966-6.319,12.25-14.713,12.562
			c-0.201,0.006-0.403,0.01-0.604,0.01c-1.098,0-2.014-0.115-2.756-0.354c-0.735-0.232-1.579-0.638-2.303-1.107
			c-1.223-0.793-1.566-2.167-1.924-7.721c-0.074-1.741-0.699-22.921-1.487-49.66c-3.532-119.774-5.729-192.144-6.337-201.979
			c0.342-4.154,7.246-10.748,12.021-13.811l5.13-3.285l-1.007-5.982l-6.383-37.959c4.698-3.3,10.674-8.79,13.135-16.53
			c2.137-6.72,1.215-13.833-2.672-20.568l-0.266-0.463l-0.319-0.428C266.029,2.161,257.686,0,252.032,0
			c-9.143,0-16.997,5.508-21.735,12.196c-0.871-0.193-1.76-0.293-2.653-0.293c-5.366,0-10.029,3.447-11.605,8.584l-1.013,3.306
			c-0.5,1.646-0.644,3.344-0.441,5.002c-1.081,1.25-1.916,2.74-2.429,4.407l-1.01,3.298c-0.509,1.672-0.638,3.371-0.438,5.003
			c-1.083,1.255-1.922,2.748-2.437,4.423l-0.997,3.271c-0.508,1.653-0.656,3.358-0.453,5.023c-1.077,1.243-1.911,2.721-2.423,4.378
			l-0.009,0.023l-0.006,0.026l-0.994,3.271c-0.505,1.65-0.653,3.35-0.451,5.012c-1.083,1.253-1.919,2.743-2.426,4.41L199.5,74.65
			c-0.501,1.645-0.645,3.34-0.442,4.998c-1.077,1.246-1.91,2.724-2.422,4.378l-0.005,0.021l-0.007,0.02l-1.004,3.293
			c-1.942,6.376,1.646,13.144,8.012,15.121c0.971,4.61,4.68,7.105,7.676,9.124c0.426,0.288,0.991,0.668,1.509,1.035l-0.667,1.092
			l-0.016,2.522c-0.014,2.192-1.273,217.042-1.344,224.693c-0.069,0.655-0.544,3.022-1.969,5.043
			c-1.515,2.148-3.571,3.141-6.657,3.202c-2.949-0.062-6.711-0.948-9.891-6.98c-2.381-4.517-3.124-9.552-3.268-10.684
			c-0.016-0.205-0.041-0.748-0.059-1.188c-0.129-2.894-0.369-8.282-1.96-13.37c-3.476-11.115-11.066-13.745-15.281-14.326
			c-0.849-0.118-1.713-0.175-2.571-0.175c-7.942,0-15.577,4.952-20.94,13.588c-4.787,7.709-7.447,17.831-7.489,28.503
			c-0.088,21.617,4.573,34.392,12.296,55.555l0.21,0.572c5.948,16.299,6.36,23.668,6.382,25.006l-0.076,0.302l0.061,1.118
			c0.473,8.768-4.368,19.914-9.973,32.819c-6.275,14.446-14.082,32.426-17.723,54.474l-0.029,0.175l-0.022,0.177
			c-3.13,24.927,1.746,45.02,14.489,59.72c21.558,24.864,59.795,27.655,84.112,28.263c1.873,2.321,4.697,3.805,7.839,3.805h0.066
			h0.061l5.338-0.068h-0.067c2.673-0.014,5.189-1.079,7.086-2.998c0.203-0.205,0.396-0.418,0.581-0.641
			c15.279-0.695,32.398-3.463,37.309-4.509c28.291-5.912,46.943-18.487,55.436-37.376
			C351.366,544.741,349.413,527.71,348.244,517.536z"/>
		<path fill="#E8E8E8" d="M400.063,553.591c3.562-2.159,6.591-3.972,9.442-5.628c6.354-3.694,11.814-6.623,20.28-10.945
			c-6.646-2.732-16.913-6.552-23.991-9.141c-2.65-0.934-5.307-1.838-7.975-2.727l-18.229,30.128c0,0,7.752-21.223,13.023-35.923
			c1.377-4.432,2.76-8.869,4.143-13.301l0.909-2.947l-2.497-0.73c-39.143-11.488-79.484-18.907-120.198-21.635
			c-11.98-0.801-23.986-1.217-35.993-1.217c-40.799-0.011-81.632,4.73-121.408,13.787c-11.681,2.656-23.286,5.687-34.782,9.064
			l-2.5,0.73l0.911,2.947c1.383,4.432,2.764,8.869,4.146,13.301c5.271,14.7,13.018,35.923,13.018,35.923L80.137,525.15
			c-2.667,0.889-5.325,1.793-7.974,2.727c-7.079,2.589-17.349,6.408-23.99,9.141c8.464,4.322,13.925,7.251,20.279,10.945
			c2.85,1.656,5.88,3.469,9.442,5.628c-2.165,6.24-3.741,10.953-5.188,15.638c-0.993,3.215-1.928,6.409-2.948,10.074
			c-0.537,1.91-1.092,3.947-1.694,6.178c2.544-0.988,5.09-1.958,7.639-2.915c9.001-3.363,18.019-6.487,27.113-9.378
			c11.496-3.653,23.105-6.943,34.945-9.895c-1.309-5.678-2.09-9.056-3.193-13.861C169.37,541.807,204.171,538,238.988,538
			c34.799,0,69.598,3.807,104.405,11.437c-1.108,4.801-1.888,8.179-3.198,13.856c11.841,2.951,23.452,6.241,34.947,9.895
			c9.094,2.891,18.112,6.015,27.111,9.378c2.55,0.957,5.096,1.927,7.64,2.915c-0.601-2.23-1.156-4.268-1.69-6.178
			c-1.024-3.665-1.958-6.859-2.953-10.074C403.804,564.544,402.229,559.831,400.063,553.591z"/>
		<path fill="#FFFFFF" d="M339.123,518.582c-2.383-20.775-18.682-53.842-27.588-71.916c-8.904-18.078-0.421-34.405-0.421-34.405
			c10.876-21.923,12.075-57.821,1.183-64.076c-14.195-8.837-17.274,7.255-19.321,14.16c-2.044,6.904-9.929,18.639-23.198,19.13
			c-2.174,0.076-4.373-0.099-6.447-0.764c-1.572-0.498-3.16-1.271-4.537-2.162c-5.356-3.48-5.717-9.08-6.09-14.892
			c-0.16-2.499-7.123-246.008-7.849-252.063c0.185-11.47,16.282-21.661,16.282-21.661l-7.424-44.146
			c0,0,22.649-10.434,12.605-27.846c-13.159-17.699-28.073-4.572-31.074,4.479c-0.334,0.998-0.799,2.428-1.369,4.188
			c-0.136-0.139-0.301-0.245-0.501-0.305l-2.122-0.65c0.152-0.632-0.125-1.277-0.665-1.604c0.007-1.271-0.809-2.442-2.088-2.836
			c-1.553-0.471-3.202,0.406-3.68,1.962l-1.007,3.291c-0.474,1.56,0.406,3.208,1.963,3.682c1.275,0.392,2.61-0.125,3.312-1.18
			c0.63,0.026,1.219-0.352,1.443-0.966l2.125,0.652c0.185,0.055,0.37,0.058,0.553,0.032c-0.948,2.954-2.101,6.562-3.359,10.516
			c-0.106-0.079-0.225-0.146-0.357-0.186l-2.122-0.648c0.153-0.632-0.125-1.277-0.665-1.603c0.007-1.269-0.809-2.446-2.084-2.833
			c-1.56-0.477-3.207,0.401-3.684,1.958l-1.006,3.288c-0.476,1.561,0.405,3.209,1.96,3.684c1.276,0.392,2.607-0.126,3.317-1.182
			c0.625,0.029,1.216-0.351,1.439-0.963l2.122,0.647c0.126,0.039,0.253,0.053,0.376,0.051c-1.061,3.336-2.179,6.861-3.305,10.415
			c-0.074-0.04-0.149-0.075-0.23-0.101l-2.126-0.648c0.153-0.63-0.122-1.275-0.66-1.602c0.01-1.265-0.813-2.442-2.085-2.832
			c-1.561-0.475-3.206,0.4-3.684,1.956l-1.003,3.293c-0.479,1.557,0.401,3.206,1.957,3.681c1.276,0.39,2.609-0.129,3.314-1.183
			c0.629,0.03,1.219-0.353,1.443-0.961l2.126,0.649c0.069,0.023,0.145,0.037,0.219,0.043c-1.118,3.523-2.23,7.031-3.286,10.359
			c-0.031-0.012-0.063-0.03-0.1-0.041l-2.124-0.646c0.154-0.633-0.121-1.277-0.66-1.606c0.006-1.266-0.813-2.441-2.088-2.832
			c-1.556-0.476-3.202,0.401-3.684,1.958l-1,3.294c-0.478,1.554,0.401,3.206,1.955,3.679c1.28,0.39,2.611-0.127,3.313-1.182
			c0.634,0.025,1.224-0.352,1.446-0.961l2.122,0.649c0.03,0.006,0.053,0.006,0.083,0.015c-1.222,3.844-2.346,7.38-3.287,10.334
			l-2.082-0.635c0.154-0.633-0.121-1.275-0.66-1.609c0.006-1.261-0.809-2.438-2.089-2.828c-1.561-0.474-3.206,0.406-3.681,1.959
			l-1.007,3.291c-0.473,1.557,0.402,3.208,1.959,3.679c1.275,0.391,2.612-0.128,3.317-1.178c0.629,0.024,1.219-0.348,1.442-0.962
			l2.052,0.625c-0.657,2.056-1.184,3.692-1.537,4.782c-0.667,2.046-1.196,3.902-1.618,5.583l-2.061-0.627
			c0.154-0.633-0.121-1.278-0.665-1.605c0.011-1.27-0.807-2.447-2.083-2.836c-1.561-0.472-3.203,0.408-3.685,1.963l-1.003,3.29
			c-0.474,1.556,0.406,3.206,1.958,3.68c1.28,0.389,2.611-0.127,3.316-1.179c0.629,0.026,1.22-0.352,1.445-0.966l2.12,0.652
			c0.038,0.013,0.069,0.013,0.103,0.02c-0.865,4.143-0.969,6.903-0.742,8.277c0.354,2.128,7.76,4.986,9.278,8.406
			c1.518,3.427-0.566,7.386-0.566,7.386s-1.313,224.066-1.347,224.976c-0.121,3.194-3.069,16.911-17.816,17.09
			c-18.677-0.259-21.905-22.834-22.267-25.777c-0.365-2.945,0.414-19.504-9.432-20.858c-9.847-1.354-20.486,12.703-20.568,32.857
			c-0.082,20.155,4.153,31.574,11.952,52.943c7.795,21.361,6.91,29.077,6.91,29.077c1.19,22.062-20.955,47.802-27.805,89.283
			c-9.768,77.799,67.051,77.237,98.49,77.828l0.01,1.015l-1.195,0.018c-0.551,0.004-0.991,0.596-0.98,1.312
			c0.006,0.718,0.461,1.297,1.014,1.29l5.341-0.068c0.552-0.002,0.992-0.592,0.987-1.309c-0.014-0.72-0.469-1.3-1.02-1.292
			l-1.191,0.015l-0.016-0.92c16.32,0.378,39.478-3.402,44.357-4.441C345.082,577.17,341.507,539.362,339.123,518.582z"/>
		<path fill="#010101" d="M433.461,544.215l15.646-7.992l-16.25-6.678c-6.777-2.787-16.947-6.573-24.287-9.258l-0.045-0.015
			l-0.044-0.017c-2.116-0.744-4.396-1.527-6.942-2.383c0.977-3.14,1.957-6.283,2.941-9.438l0.908-2.946l2.413-7.834l-7.868-2.302
			l-2.488-0.729c-40.36-11.845-81.386-19.227-121.934-21.943c-12.263-0.82-24.555-1.236-36.531-1.236h-0.127
			c-40.896,0-82.305,4.707-123.074,13.988c-11.702,2.662-23.567,5.755-35.258,9.189l-2.5,0.729l-7.878,2.303l2.425,7.841
			l0.917,2.967l2.073,6.648l0.861,2.764c-2.549,0.856-4.831,1.639-6.943,2.383l-0.044,0.016l-0.047,0.016
			c-7.354,2.691-17.538,6.482-24.286,9.258l-16.245,6.682l15.642,7.988c8.694,4.439,13.9,7.248,19.898,10.738
			c1.166,0.677,2.39,1.396,3.737,2.197c-1.236,3.66-2.219,6.69-3.146,9.695c-1.02,3.303-1.977,6.571-3.008,10.271
			c-0.479,1.705-0.992,3.576-1.715,6.258l-4.161,15.417l14.887-5.78c2.47-0.957,5.009-1.926,7.543-2.875
			c8.893-3.326,17.888-6.436,26.732-9.248c11.283-3.587,22.876-6.868,34.453-9.756l7.705-1.922l-1.786-7.736
			c-0.513-2.221-0.944-4.09-1.345-5.832c31.467-6.346,63.282-9.561,94.698-9.561c31.407,0,63.218,3.215,94.679,9.564l-0.054,0.234
			l-1.291,5.596l-1.784,7.736l7.702,1.92c11.59,2.891,23.183,6.174,34.453,9.756c8.861,2.816,17.855,5.928,26.726,9.244
			c2.505,0.939,5.045,1.907,7.552,2.881l14.87,5.771l-4.144-15.402c-0.629-2.339-1.188-4.386-1.713-6.253
			c-1.055-3.779-2.014-7.049-3.012-10.283c-0.922-2.986-1.906-6.018-3.148-9.695c1.354-0.805,2.58-1.525,3.744-2.201
			C419.56,551.463,424.766,548.653,433.461,544.215z"/>
		<path fill="#7A93C3" d="M400.063,553.591c3.562-2.159,6.591-3.972,9.442-5.628c6.354-3.694,11.814-6.623,20.28-10.945
			c-6.646-2.732-16.913-6.552-23.991-9.141c-2.65-0.934-5.307-1.838-7.975-2.727l-18.229,30.128c0,0,7.752-21.223,13.023-35.923
			c1.377-4.432,2.76-8.869,4.143-13.301l0.909-2.947l-2.497-0.73c-39.143-11.488-79.484-18.907-120.198-21.635
			c-11.98-0.801-23.986-1.217-35.993-1.217c-40.799-0.011-81.632,4.73-121.408,13.787c-11.681,2.656-23.286,5.687-34.782,9.064
			l-2.5,0.73l0.911,2.947c1.383,4.432,2.764,8.869,4.146,13.301c5.271,14.7,13.018,35.923,13.018,35.923L80.137,525.15
			c-2.667,0.889-5.325,1.793-7.974,2.727c-7.079,2.589-17.349,6.408-23.99,9.141c8.464,4.322,13.925,7.251,20.279,10.945
			c2.85,1.656,5.88,3.469,9.442,5.628c-2.165,6.24-3.741,10.953-5.188,15.638c-0.993,3.215-1.928,6.409-2.948,10.074
			c-0.537,1.91-1.092,3.947-1.694,6.178c2.544-0.988,5.09-1.958,7.639-2.915c9.001-3.363,18.019-6.487,27.113-9.378
			c11.496-3.653,23.105-6.943,34.945-9.895c-1.309-5.678-2.09-9.056-3.193-13.861C169.37,541.807,204.171,538,238.988,538
			c34.799,0,69.598,3.807,104.405,11.437c-1.108,4.801-1.888,8.179-3.198,13.856c11.841,2.951,23.452,6.241,34.947,9.895
			c9.094,2.891,18.112,6.015,27.111,9.378c2.55,0.957,5.096,1.927,7.64,2.915c-0.601-2.23-1.156-4.268-1.69-6.178
			c-1.024-3.665-1.958-6.859-2.953-10.074C403.804,564.544,402.229,559.831,400.063,553.591z"/>
	</g>
</g>
</svg>
