<?xml version="1.0" encoding="utf-8"?>
<!-- Generator: Adobe Illustrator 12.0.1, SVG Export Plug-In . SVG Version: 6.00 Build 51448)  -->
<!DOCTYPE svg PUBLIC "-//W3C//DTD SVG 1.1//EN" "http://www.w3.org/Graphics/SVG/1.1/DTD/svg11.dtd" [
	<!ENTITY ns_svg "http://www.w3.org/2000/svg">
	<!ENTITY ns_xlink "http://www.w3.org/1999/xlink">
]>
<svg  version="1.1" id="Layer_1" xmlns="&ns_svg;" xmlns:xlink="&ns_xlink;" width="373.669" height="691.859"
	 viewBox="0 0 373.669 691.859" overflow="visible" enable-background="new 0 0 373.669 691.859" xml:space="preserve">
<g>
	<g>
		<path fill="#F26821" d="M305.783,578.32c-7.172,0-1.464-15.811,1.129-21.686c7.874-17.547,14.918-35.297,19.436-53.936
			c7.367-24.088,2.103-46.564-4.307-67.678c-5.313-16.561-16.418-44.271-2.742-69.076c-11.092,8.688-16.319,24.093-19.124,38.986
			c-1.372,7.342,2.42,22.941,1.911,30.287c-0.309,4.383-3.883,13.165-10.672,11.09c-4.896-1.5-3.225-11.452-3.064-15.48
			c0.348-8.992,3.549-18.469,3.189-27.346c-0.817-17.839-2.176-35.928-9.115-52.067c-27.475-74.727-13.516-107.449-2.224-133.189
			c-39.218,26.967-34.292,83.276-33.985,103.924c0.25,20.652-7.945,54.511-21.572,54.066c-13.634-0.454-18.275-23.11-17.71-55.159
			c0.372-21.158,15.731-47.779,23.653-67.573c20.184-47.901,39.365-101.29,16.899-149.941
			c-10.568-21.555-26.599-42.044-47.097-59.184C179.189,27.073,138.112,5.174,127.294,0c40.925,29.772,95.249,98.07,90.135,161.641
			c-1.29,16.696-12.365,46.35-22.725,60.914c-7.531,10.818-30.219,17.896-41.796,9.63c-9.081-6.401-12.338-18.754-13.575-28.186
			c-1.671-12.544-2.816-55.695,10.848-64.583c-12.534,8.151-45.607,40.661-39.399,80.136c5.962,39.478,35.361,70.831,45.156,121.722
			c2.889,16.027,5.069,36.184,0.814,51.969c-3.206,12.275-19.294,27.109-29.466,10.47c-7.448-11.877-1.56-30.528-0.854-43.147
			c1.499-24.904-4.786-45.971-21.728-66.403c-14.948-17.484-37.112-36.44-60.58-44.883c21.188,18.443,41.241,46.605,47.502,71.651
			c7.832,32.438-6.731,59.949-18.083,87.53c-11.279,29.443-7.378,52.888,4.619,84.42c5.037,13.698,17.409,43.645,0.056,48.657
			c-24.231,7.097-37.381-52.247-38.899-72.802c-2.164,14.193-4.774,33.714-3.591,50.854c3.123,41.494,22.422,81.872,48.102,112.398
			c18.314,23.06,40.401,38.567,63.152,46.56c33.788,12.196,72.574,10.171,104.146-15.805
			c62.473-47.04,77.142-103.979,80.885-121.131C328.472,550.965,313.017,578.32,305.783,578.32z"/>
		<path fill="#010101" d="M283.987,612.716c-2.276-19.86-16.685-49.099-25.292-66.569l-0.023-0.051
			c-5.777-11.727-0.867-22.369-0.443-23.239l0.058-0.116c5.097-10.272,8.323-24.157,8.633-37.146
			c0.259-10.896-1.392-24.999-10.704-30.465c-3.721-2.294-7.362-3.457-10.822-3.457c-3.322,0-9.559,1.146-13.977,8.805
			c-2.061,3.572-3.174,7.566-3.988,10.48c-0.145,0.521-0.281,1.009-0.412,1.451c-1.043,3.525-5.619,10.893-13.082,11.17
			c-0.18,0.004-0.358,0.008-0.537,0.008c-0.977,0-1.791-0.102-2.451-0.312c-0.653-0.207-1.404-0.568-2.047-0.986
			c-1.088-0.704-1.393-1.926-1.711-6.864c-0.065-1.549-0.621-20.38-1.322-44.156c-3.141-106.498-5.095-170.845-5.635-179.591
			c0.305-3.694,6.441-9.557,10.69-12.278l4.56-2.922l-0.895-5.319l-5.676-33.752c4.177-2.933,9.49-7.816,11.679-14.698
			c1.9-5.976,1.08-12.3-2.375-18.289l-0.237-0.411l-0.283-0.381c-6.809-9.157-14.229-11.079-19.254-11.079
			c-8.129,0-15.114,4.897-19.326,10.846c-0.773-0.174-1.565-0.261-2.359-0.261c-4.771,0-8.917,3.065-10.318,7.633l-0.901,2.94
			c-0.445,1.462-0.573,2.971-0.392,4.446c-0.96,1.112-1.704,2.437-2.16,3.918l-0.898,2.934c-0.453,1.486-0.567,2.997-0.388,4.449
			c-0.963,1.114-1.71,2.441-2.167,3.93l-0.886,2.911c-0.453,1.467-0.584,2.984-0.404,4.465c-0.957,1.105-1.698,2.42-2.155,3.892
			l-0.007,0.022l-0.007,0.022l-0.883,2.908c-0.448,1.467-0.581,2.978-0.401,4.456c-0.963,1.114-1.706,2.439-2.157,3.922
			l-0.901,2.942c-0.446,1.463-0.574,2.972-0.393,4.445c-0.957,1.108-1.699,2.423-2.154,3.895l-0.005,0.017l-0.005,0.018
			l-0.893,2.928c-1.727,5.67,1.463,11.687,7.124,13.445c0.862,4.099,4.161,6.317,6.826,8.112c0.378,0.256,0.88,0.594,1.341,0.921
			l-0.594,0.972l-0.014,2.243c-0.012,1.95-1.131,192.983-1.194,199.786c-0.062,0.583-0.484,2.688-1.752,4.484
			c-1.347,1.91-3.175,2.793-5.919,2.847c-2.623-0.054-5.967-0.843-8.794-6.206c-2.116-4.016-2.778-8.492-2.906-9.499
			c-0.015-0.183-0.036-0.665-0.053-1.056c-0.115-2.572-0.327-7.365-1.742-11.888c-3.09-9.884-9.839-12.224-13.588-12.739
			c-0.753-0.104-1.522-0.156-2.285-0.156c-7.064,0-13.852,4.404-18.621,12.082c-4.256,6.855-6.621,15.855-6.659,25.344
			c-0.078,19.22,4.067,30.58,10.935,49.396l0.186,0.511c5.289,14.491,5.656,21.044,5.675,22.233l-0.068,0.268l0.055,0.994
			c0.42,7.795-3.884,17.707-8.868,29.182c-5.578,12.846-12.521,28.832-15.758,48.435l-0.026,0.157l-0.02,0.156
			c-2.782,22.164,1.552,40.029,12.883,53.101c19.168,22.108,53.167,24.589,74.788,25.128c1.666,2.066,4.177,3.385,6.97,3.385h0.061
			h0.053l4.747-0.061H191c2.377-0.013,4.615-0.959,6.302-2.666c0.181-0.183,0.353-0.373,0.517-0.57
			c13.585-0.617,28.807-3.078,33.172-4.008c25.157-5.258,41.741-16.438,49.293-33.233
			C286.763,636.906,285.025,621.764,283.987,612.716z"/>
		<path fill="#FFFFFF" d="M330.061,644.775c3.168-1.92,5.86-3.531,8.396-5.004c5.65-3.286,10.506-5.889,18.032-9.732
			c-5.908-2.43-15.036-5.825-21.331-8.128c-2.355-0.829-4.719-1.634-7.091-2.424l-16.206,26.788c0,0,6.891-18.87,11.577-31.941
			c1.226-3.939,2.455-7.886,3.685-11.826l0.809-2.62l-2.221-0.649c-34.803-10.215-70.676-16.813-106.875-19.236
			c-10.652-0.713-21.328-1.082-32.003-1.082c-36.278-0.01-72.584,4.206-107.951,12.258c-10.386,2.362-20.705,5.057-30.927,8.061
			l-2.222,0.649l0.809,2.62c1.229,3.94,2.458,7.887,3.687,11.826c4.686,13.071,11.576,31.941,11.576,31.941l-16.208-26.788
			c-2.371,0.79-4.734,1.595-7.089,2.424c-6.295,2.303-15.426,5.698-21.332,8.128c7.526,3.844,12.381,6.446,18.031,9.732
			c2.535,1.473,5.229,3.084,8.395,5.004c-1.925,5.549-3.326,9.739-4.613,13.903c-0.882,2.86-1.714,5.7-2.621,8.958
			c-0.477,1.698-0.972,3.51-1.506,5.493c2.261-0.878,4.525-1.741,6.792-2.592c8.003-2.99,16.022-5.769,24.108-8.338
			c10.222-3.249,20.543-6.175,31.072-8.798c-1.165-5.049-1.858-8.052-2.84-12.326c30.943-6.777,61.888-10.164,92.844-10.164
			c30.943,0,61.885,3.387,92.834,10.169c-0.986,4.27-1.679,7.272-2.844,12.321c10.527,2.623,20.852,5.549,31.073,8.798
			c8.085,2.569,16.105,5.348,24.106,8.338c2.268,0.851,4.53,1.714,6.793,2.592c-0.533-1.983-1.028-3.795-1.503-5.493
			c-0.911-3.258-1.741-6.098-2.626-8.958C333.387,654.515,331.986,650.324,330.061,644.775z"/>
		<path fill="#FFFFFF" d="M275.875,613.646c-2.118-18.473-16.61-47.873-24.529-63.943c-7.917-16.074-0.374-30.592-0.374-30.592
			c9.67-19.494,10.737-51.412,1.051-56.975c-12.621-7.857-15.359,6.451-17.18,12.59c-1.818,6.14-8.828,16.573-20.626,17.012
			c-1.933,0.066-3.89-0.089-5.732-0.682c-1.398-0.44-2.812-1.13-4.036-1.922c-4.762-3.094-5.081-8.073-5.414-13.24
			c-0.143-2.224-6.333-218.74-6.979-224.123c0.164-10.2,14.479-19.261,14.479-19.261l-6.601-39.253c0,0,20.138-9.278,11.208-24.76
			c-11.701-15.737-24.963-4.065-27.63,3.981c-0.297,0.888-0.711,2.16-1.218,3.726c-0.12-0.124-0.268-0.217-0.445-0.271l-1.887-0.578
			c0.136-0.562-0.111-1.137-0.591-1.426c0.006-1.129-0.718-2.173-1.856-2.521c-1.381-0.419-2.848,0.361-3.273,1.745l-0.895,2.925
			c-0.422,1.387,0.36,2.853,1.745,3.274c1.134,0.349,2.321-0.111,2.945-1.05c0.56,0.023,1.084-0.312,1.284-0.859l1.889,0.581
			c0.165,0.048,0.329,0.052,0.492,0.027c-0.842,2.629-1.868,5.836-2.986,9.352c-0.094-0.07-0.2-0.131-0.318-0.166l-1.886-0.577
			c0.136-0.562-0.111-1.134-0.592-1.424c0.006-1.129-0.719-2.174-1.853-2.52c-1.387-0.423-2.852,0.356-3.276,1.741l-0.895,2.923
			c-0.421,1.387,0.362,2.853,1.745,3.274c1.134,0.349,2.318-0.112,2.949-1.051c0.556,0.026,1.081-0.312,1.28-0.854l1.887,0.575
			c0.112,0.034,0.225,0.047,0.334,0.045c-0.943,2.966-1.937,6.099-2.939,9.26c-0.065-0.036-0.132-0.066-0.205-0.09l-1.891-0.576
			c0.136-0.561-0.108-1.134-0.586-1.425c0.009-1.125-0.723-2.172-1.854-2.519c-1.387-0.423-2.851,0.355-3.275,1.74l-0.893,2.927
			c-0.425,1.383,0.357,2.85,1.741,3.273c1.135,0.347,2.32-0.116,2.946-1.052c0.56,0.027,1.084-0.313,1.284-0.855l1.89,0.578
			c0.062,0.021,0.129,0.031,0.195,0.038c-0.994,3.133-1.982,6.252-2.921,9.212c-0.028-0.012-0.057-0.026-0.089-0.036l-1.888-0.575
			c0.136-0.563-0.108-1.137-0.587-1.431c0.005-1.124-0.724-2.169-1.857-2.516c-1.384-0.423-2.847,0.355-3.276,1.741l-0.889,2.928
			c-0.424,1.382,0.357,2.852,1.738,3.272c1.138,0.346,2.322-0.113,2.946-1.051c0.563,0.023,1.088-0.313,1.287-0.854l1.887,0.577
			c0.026,0.005,0.047,0.005,0.074,0.014c-1.086,3.419-2.086,6.562-2.923,9.188l-1.852-0.564c0.138-0.562-0.107-1.134-0.585-1.43
			c0.005-1.122-0.72-2.169-1.858-2.515c-1.387-0.421-2.851,0.362-3.271,1.742l-0.896,2.926c-0.42,1.384,0.357,2.853,1.742,3.271
			c1.134,0.348,2.323-0.114,2.949-1.047c0.561,0.021,1.083-0.311,1.282-0.855l1.826,0.554c-0.584,1.83-1.054,3.283-1.367,4.254
			c-0.594,1.819-1.064,3.47-1.44,4.964l-1.831-0.558c0.136-0.562-0.108-1.136-0.592-1.427c0.009-1.128-0.718-2.176-1.853-2.521
			c-1.388-0.422-2.848,0.361-3.275,1.744l-0.893,2.926c-0.422,1.384,0.36,2.851,1.741,3.272c1.138,0.345,2.321-0.114,2.948-1.049
			c0.56,0.023,1.085-0.313,1.284-0.858l1.886,0.579c0.034,0.012,0.062,0.012,0.091,0.019c-0.769,3.683-0.862,6.138-0.659,7.359
			c0.314,1.893,6.899,4.433,8.25,7.474c1.349,3.048-0.505,6.567-0.505,6.567s-1.167,199.229-1.196,200.039
			c-0.108,2.84-2.729,15.036-15.842,15.196c-16.607-0.23-19.477-20.303-19.799-22.92c-0.325-2.619,0.369-17.344-8.386-18.547
			c-8.757-1.205-18.216,11.295-18.289,29.216c-0.073,17.92,3.692,28.073,10.626,47.075c6.932,18.993,6.144,25.853,6.144,25.853
			c1.059,19.617-18.632,42.503-24.724,79.387c-8.685,69.176,59.621,68.677,87.573,69.203l0.009,0.901l-1.063,0.016
			c-0.489,0.004-0.881,0.529-0.872,1.165c0.005,0.64,0.41,1.153,0.902,1.147l4.748-0.061c0.492-0.001,0.883-0.525,0.879-1.162
			c-0.012-0.642-0.418-1.157-0.906-1.15l-1.06,0.014l-0.015-0.818c14.512,0.336,35.102-3.025,39.441-3.949
			C281.173,665.74,277.996,632.123,275.875,613.646z"/>
		<path fill="#010101" d="M359.757,636.438l13.912-7.104l-14.449-5.94c-6.025-2.477-15.069-5.842-21.595-8.229l-0.04-0.013
			l-0.039-0.016c-1.881-0.662-3.909-1.358-6.173-2.118c0.869-2.792,1.741-5.587,2.614-8.393l0.809-2.62l2.146-6.965l-6.996-2.047
			l-2.213-0.649c-35.887-10.53-72.364-17.097-108.418-19.51c-10.904-0.73-21.833-1.101-32.482-1.101h-0.113
			c-36.361,0-73.181,4.186-109.432,12.439c-10.405,2.365-20.955,5.115-31.35,8.17l-2.222,0.648l-7.005,2.047l2.156,6.973
			l0.815,2.638l1.843,5.911l0.766,2.458c-2.267,0.761-4.295,1.456-6.173,2.118l-0.039,0.015l-0.042,0.014
			c-6.539,2.394-15.594,5.763-21.595,8.231L0,629.335l13.908,7.103c7.731,3.949,12.359,6.445,17.693,9.549
			c1.036,0.602,2.125,1.242,3.322,1.953c-1.099,3.256-1.972,5.949-2.798,8.621c-0.907,2.937-1.757,5.842-2.674,9.133
			c-0.425,1.517-0.881,3.18-1.524,5.564l-3.7,13.708l13.236-5.14c2.196-0.852,4.455-1.713,6.708-2.557
			c7.906-2.957,15.904-5.722,23.769-8.222c10.032-3.19,20.341-6.108,30.634-8.675l6.851-1.708l-1.588-6.88
			c-0.457-1.976-0.841-3.638-1.197-5.186c27.979-5.643,56.268-8.5,84.2-8.5c27.928,0,56.211,2.857,84.186,8.504l-0.049,0.209
			l-1.146,4.975l-1.588,6.879l6.85,1.707c10.307,2.568,20.613,5.488,30.635,8.675c7.878,2.503,15.875,5.271,23.762,8.219
			c2.229,0.834,4.486,1.696,6.715,2.562l13.221,5.131l-3.683-13.695c-0.56-2.078-1.058-3.898-1.522-5.561
			c-0.938-3.36-1.79-6.267-2.68-9.143c-0.82-2.656-1.693-5.351-2.797-8.621c1.202-0.715,2.293-1.355,3.328-1.957
			C347.397,642.883,352.026,640.385,359.757,636.438z"/>
		<path fill="#981B1E" d="M330.061,644.775c3.168-1.92,5.86-3.531,8.396-5.004c5.65-3.286,10.506-5.889,18.032-9.732
			c-5.908-2.43-15.036-5.825-21.331-8.128c-2.355-0.829-4.719-1.634-7.091-2.424l-16.206,26.788c0,0,6.891-18.87,11.577-31.941
			c1.226-3.939,2.455-7.886,3.685-11.826l0.809-2.62l-2.221-0.649c-34.803-10.215-70.676-16.813-106.875-19.236
			c-10.652-0.713-21.328-1.082-32.003-1.082c-36.278-0.01-72.584,4.206-107.951,12.258c-10.386,2.362-20.705,5.057-30.927,8.061
			l-2.222,0.649l0.809,2.62c1.229,3.94,2.458,7.887,3.687,11.826c4.686,13.071,11.576,31.941,11.576,31.941l-16.208-26.788
			c-2.371,0.79-4.734,1.595-7.089,2.424c-6.295,2.303-15.426,5.698-21.332,8.128c7.526,3.844,12.381,6.446,18.031,9.732
			c2.535,1.473,5.229,3.084,8.395,5.004c-1.925,5.549-3.326,9.739-4.613,13.903c-0.882,2.86-1.714,5.7-2.621,8.958
			c-0.477,1.698-0.972,3.51-1.506,5.493c2.261-0.878,4.525-1.741,6.792-2.592c8.003-2.99,16.022-5.769,24.108-8.338
			c10.222-3.249,20.543-6.175,31.072-8.798c-1.165-5.049-1.858-8.052-2.84-12.326c30.943-6.777,61.888-10.164,92.844-10.164
			c30.943,0,61.885,3.387,92.834,10.169c-0.986,4.27-1.679,7.272-2.844,12.321c10.527,2.623,20.852,5.549,31.073,8.798
			c8.085,2.569,16.105,5.348,24.106,8.338c2.268,0.851,4.53,1.714,6.793,2.592c-0.533-1.983-1.028-3.795-1.503-5.493
			c-0.911-3.258-1.741-6.098-2.626-8.958C333.387,654.515,331.986,650.324,330.061,644.775z"/>
	</g>
</g>
</svg>
