<?xml version="1.0" encoding="utf-8"?>
<!-- Generator: Adobe Illustrator 12.0.1, SVG Export Plug-In . SVG Version: 6.00 Build 51448)  -->
<!DOCTYPE svg PUBLIC "-//W3C//DTD SVG 1.1//EN" "http://www.w3.org/Graphics/SVG/1.1/DTD/svg11.dtd" [
	<!ENTITY ns_svg "http://www.w3.org/2000/svg">
	<!ENTITY ns_xlink "http://www.w3.org/1999/xlink">
]>
<svg  version="1.1" id="Layer_1" xmlns="&ns_svg;" xmlns:xlink="&ns_xlink;" width="591.119" height="474.597"
	 viewBox="0 0 591.119 474.597" overflow="visible" enable-background="new 0 0 591.119 474.597" xml:space="preserve">
<g>
	<g>
		<path d="M148.004,187.83c-1.733,1.263-10.187,5.403-16.401-2.291c-7.619-9.948,2.937-21.021,4.338-22.434
			c1.4-1.416,10.448-7.879,7.074-13.628c-3.377-5.75-15.198-5.52-25.851,2.803c-10.653,8.325-14.911,15.295-22.933,28.275
			c-8.02,12.977-12.45,15.713-12.45,15.713c-11.13,9.786-33.885,8.804-58.583,22.414c-45.042,27.151-12.856,67.392-0.116,84.2
			l-0.533,0.427l-0.505-0.622c-0.229-0.289-0.724-0.275-1.098,0.027c-0.375,0.3-0.49,0.781-0.257,1.068l2.251,2.787
			c0.231,0.289,0.727,0.277,1.098-0.023c0.376-0.305,0.491-0.787,0.26-1.074l-0.503-0.62l0.478-0.392
			c6.577,8.756,18.182,19.387,20.756,21.525c30.636,25.686,49.07,8.107,59.03-1.775c9.954-9.881,20.611-32.195,26.437-44.389
			c5.826-12.197,17.952-14.506,17.952-14.506c16.065-3.371,35.477-17.642,34.25-25.979c-1.236-11.147-10.993-6.088-15.481-4.301
			c-4.487,1.79-13.941,2.506-19.71-4.281c-0.942-1.112-1.765-2.345-2.274-3.713c-0.391-1.035-0.644-2.192-0.747-3.289
			c-0.39-4.268,2.413-6.781,5.319-9.39c1.098-0.985,120.306-97.39,145.828-119.038l-10.589-12.24
			C263.587,99.79,148.439,187.512,148.004,187.83z"/>
		<circle fill="#FFFFFF" cx="484.329" cy="38.621" r="38.621"/>
	</g>
	<path fill="#FFFFFF" d="M285.704,71.127l80.979-15.917c3.715-0.731,7.691-0.454,11.268,0.787c0,0,66.641,23.082,66.869,23.161
		c30.785,10.646,62.094,13.726,73.689,48.649c3.943,11.875,8.078,23.694,12.255,35.499c0.593,1.134,1.115,2.323,1.551,3.566
		l57.319,163.652c1.584,4.521,1.913,9.583,0.928,14.272l-22.83,108.647c-2.638,12.542-13.699,21.149-26.023,21.151
		c-1.814,0-3.655-0.187-5.502-0.575c-14.387-3.023-23.6-17.136-20.576-31.522l21.305-101.384l-15.446-44.104l-23.397,71.802
		c-0.902,2.771-2.201,5.268-3.947,7.603l-65.635,87.659c-5.156,6.887-13.048,10.52-21.037,10.521c-5.477,0-10.996-1.706-15.717-5.24
		c-11.605-8.692-13.972-25.146-5.281-36.754l63.035-84.187c0,0,25.193-91.365,24.161-94.32l-45.961-131.585
		c-0.444-1.27-0.817-2.543-1.135-3.814l-57.276-19.838l-75.235,14.789c-11.741,2.304-23.13-5.342-25.438-17.083
		C266.318,84.823,273.963,73.435,285.704,71.127z"/>
</g>
</svg>
