<?xml version="1.0" encoding="utf-8"?>
<!-- Generator: Adobe Illustrator 12.0.1, SVG Export Plug-In . SVG Version: 6.00 Build 51448)  -->
<!DOCTYPE svg PUBLIC "-//W3C//DTD SVG 1.1//EN" "http://www.w3.org/Graphics/SVG/1.1/DTD/svg11.dtd" [
	<!ENTITY ns_svg "http://www.w3.org/2000/svg">
	<!ENTITY ns_xlink "http://www.w3.org/1999/xlink">
]>
<svg  version="1.1" id="Layer_1" xmlns="&ns_svg;" xmlns:xlink="&ns_xlink;" width="549.26" height="452.562"
	 viewBox="0 0 549.26 452.562" overflow="visible" enable-background="new 0 0 549.26 452.562" xml:space="preserve">
<g>
	<path fill="#FFFFFF" d="M418.438,277.482c1.564,0.959,9.058,3.902,13.822-3.086c5.803-9.008-3.961-17.715-5.252-18.822
		c-1.291-1.109-9.451-5.991-6.973-11.125c2.479-5.135,12.57-5.758,22.227,0.599c9.658,6.359,13.769,12.006,21.506,22.513
		c7.732,10.506,11.701,12.532,11.701,12.532c10.162,7.57,29.49,5.157,51.486,15.05c40.271,20.024,15.623,56.555,5.928,71.764
		l0.484,0.326l0.387-0.566c0.174-0.262,0.598-0.283,0.938-0.052c0.342,0.229,0.473,0.632,0.293,0.895l-1.728,2.529
		c-0.176,0.264-0.6,0.287-0.938,0.058c-0.34-0.234-0.474-0.638-0.295-0.897l0.387-0.564l-0.436-0.299
		c-5,7.919-14.156,17.781-16.203,19.784c-24.334,24.016-41.265,10.308-50.438,2.572c-9.17-7.732-19.799-26.015-25.606-36.006
		c-5.812-9.994-16.308-11.121-16.308-11.121c-13.926-1.763-31.459-12.58-30.992-19.772c0.281-9.587,8.949-5.95,12.896-4.737
		c3.949,1.215,12.059,1.172,16.506-5.014c0.725-1.014,1.342-2.121,1.682-3.322c0.263-0.91,0.396-1.912,0.406-2.854
		c0.037-3.664-2.524-5.613-5.182-7.635c-1.004-0.766-109.29-74.686-132.541-91.372l8.178-11.166
		C313.82,210.442,418.043,277.244,418.438,277.482z"/>
	<path fill="#FFFFFF" d="M9.903,387.094c3.934,2.694,8.411,3.985,12.842,3.985c7.257,0,14.392-3.466,18.803-9.906L104.12,289.8
		c1.076-1.573,1.811-2.979,2.489-4.759l15.89-41.7l24.837,48.653v87.441c0,12.572,10.192,22.765,22.764,22.765
		c12.573,0,22.764-10.191,22.764-22.765V286.52c0-3.598-0.852-7.146-2.489-10.35l-30.155-59.068c0.522-1.117,1-2.271,1.417-3.467
		l29.679-84.969l84.625,83.039c3.606,3.54,8.293,5.305,12.977,5.304c4.801,0,9.598-1.854,13.225-5.551
		c7.168-7.304,7.06-19.036-0.246-26.202c0,0-104.548-102.651-107.361-105.44c-6.578-6.521-13.922-16.215-22.233-20.595
		c-16.156-8.512-33.441,1.874-39.146,18.208c-0.082,0.232-39.305,112.529-39.305,112.529c-0.375,1.077-0.693,2.157-0.963,3.236
		l-27.858,73.111L3.983,355.451C-3.12,365.823-0.469,379.991,9.903,387.094z M243.418,33.028C243.418,14.787,228.633,0,210.391,0
		c-18.241,0-33.028,14.787-33.028,33.028c0,18.241,14.787,33.028,33.028,33.028C228.633,66.056,243.418,51.27,243.418,33.028z"/>
	<g>
		<polygon fill="#FFFFFF" points="475.367,402.134 436.639,397.765 437.512,410.067 		"/>
		<polygon fill="#FFFFFF" points="487.646,404.922 508.119,448.718 493.311,452.562 		"/>
		<polygon fill="#FFFFFF" points="482.205,404.834 437.441,439.688 450.867,451.605 		"/>
	</g>
</g>
</svg>
