<?xml version="1.0" encoding="utf-8"?>
<!-- Generator: Adobe Illustrator 12.0.1, SVG Export Plug-In . SVG Version: 6.00 Build 51448)  -->
<!DOCTYPE svg PUBLIC "-//W3C//DTD SVG 1.1//EN" "http://www.w3.org/Graphics/SVG/1.1/DTD/svg11.dtd" [
	<!ENTITY ns_svg "http://www.w3.org/2000/svg">
	<!ENTITY ns_xlink "http://www.w3.org/1999/xlink">
]>
<svg  version="1.1" id="Layer_1" xmlns="&ns_svg;" xmlns:xlink="&ns_xlink;" width="29.906" height="30.294"
	 viewBox="0 0 29.906 30.294" overflow="visible" enable-background="new 0 0 29.906 30.294" xml:space="preserve">
<g>
	<path fill="#FFFFFF" d="M14.943,0C6.703,0,0,6.701,0,14.938v7.069c0,0.533,0.432,0.965,0.965,0.965
		c0.531,0,0.963-0.432,0.963-0.965v-7.069c0-7.174,5.84-13.011,13.016-13.011c7.188,0,13.035,5.837,13.035,13.011v7.069
		c0,0.533,0.432,0.965,0.965,0.965c0.531,0,0.963-0.432,0.963-0.965v-7.069C29.906,6.701,23.193,0,14.943,0z"/>
	<path fill="#FFFFFF" d="M6.998,13.129c-2.035,0-3.686,1.65-3.686,3.685v9.795c0,2.035,1.65,3.686,3.686,3.686
		s3.684-1.65,3.684-3.686v-9.795C10.682,14.779,9.033,13.129,6.998,13.129z M8.93,27.144c0,0.275-0.223,0.496-0.496,0.496
		c-0.275,0-0.496-0.221-0.496-0.496v-10.66c0-0.273,0.221-0.496,0.496-0.496c0.273,0,0.496,0.223,0.496,0.496V27.144z"/>
	<path fill="#FFFFFF" d="M22.908,13.129c-2.035,0-3.686,1.65-3.686,3.685v9.795c0,2.035,1.65,3.686,3.686,3.686
		s3.686-1.65,3.686-3.686v-9.795C26.594,14.779,24.943,13.129,22.908,13.129z M21.969,27.144c0,0.275-0.221,0.496-0.496,0.496
		c-0.273,0-0.496-0.221-0.496-0.496v-10.66c0-0.273,0.223-0.496,0.496-0.496c0.275,0,0.496,0.223,0.496,0.496V27.144z"/>
</g>
</svg>
