<?xml version="1.0" encoding="utf-8"?>
<!-- Generator: Adobe Illustrator 12.0.1, SVG Export Plug-In . SVG Version: 6.00 Build 51448)  -->
<!DOCTYPE svg PUBLIC "-//W3C//DTD SVG 1.1//EN" "http://www.w3.org/Graphics/SVG/1.1/DTD/svg11.dtd" [
	<!ENTITY ns_svg "http://www.w3.org/2000/svg">
	<!ENTITY ns_xlink "http://www.w3.org/1999/xlink">
]>
<svg  version="1.1" id="Layer_1" xmlns="&ns_svg;" xmlns:xlink="&ns_xlink;" width="35.013" height="29.623"
	 viewBox="0 0 35.013 29.623" overflow="visible" enable-background="new 0 0 35.013 29.623" xml:space="preserve">
<g>
	<g>
		<path fill="#FFFFFF" d="M1.417,29.623h4.836l0,0c0.783,0,1.417-0.634,1.417-1.417s-0.634-1.417-1.417-1.417l0,0H1.417l0,0
			C0.634,26.789,0,27.423,0,28.206S0.634,29.623,1.417,29.623L1.417,29.623z"/>
	</g>
	<g>
		<path fill="#FFFFFF" d="M1.417,25.158h4.836l0,0c0.783,0,1.417-0.634,1.417-1.417s-0.634-1.417-1.417-1.417l0,0H1.417l0,0
			C0.634,22.324,0,22.958,0,23.741S0.634,25.158,1.417,25.158L1.417,25.158z"/>
	</g>
	<g>
		<path fill="#FFFFFF" d="M1.417,20.693h4.836l0,0c0.783,0,1.417-0.634,1.417-1.417s-0.634-1.417-1.417-1.417l0,0H1.417l0,0
			C0.634,17.859,0,18.493,0,19.276S0.634,20.693,1.417,20.693L1.417,20.693z"/>
	</g>
	<g>
		<path fill="#FFFFFF" d="M1.417,16.229h4.836l0,0c0.783,0,1.417-0.634,1.417-1.417s-0.634-1.417-1.417-1.417l0,0H1.417l0,0
			C0.634,13.395,0,14.028,0,14.812S0.634,16.229,1.417,16.229L1.417,16.229z"/>
	</g>
	<g>
		<path fill="#FFFFFF" d="M1.417,11.764h4.836l0,0c0.783,0,1.417-0.634,1.417-1.417S7.036,8.93,6.253,8.93l0,0H1.417l0,0
			C0.634,8.93,0,9.563,0,10.347S0.634,11.764,1.417,11.764L1.417,11.764z"/>
	</g>
	<g>
		<path fill="#FFFFFF" d="M10.531,29.623h4.836l0,0c0.783,0,1.417-0.634,1.417-1.417s-0.634-1.417-1.417-1.417l0,0h-4.836l0,0
			c-0.783,0-1.417,0.634-1.417,1.417S9.748,29.623,10.531,29.623L10.531,29.623z"/>
	</g>
	<g>
		<path fill="#FFFFFF" d="M10.531,25.158h4.836l0,0c0.783,0,1.417-0.634,1.417-1.417s-0.634-1.417-1.417-1.417l0,0h-4.836l0,0
			c-0.783,0-1.417,0.634-1.417,1.417S9.748,25.158,10.531,25.158L10.531,25.158z"/>
	</g>
	<g>
		<path fill="#FFFFFF" d="M10.531,20.693h4.836l0,0c0.783,0,1.417-0.634,1.417-1.417s-0.634-1.417-1.417-1.417l0,0h-4.836l0,0
			c-0.783,0-1.417,0.634-1.417,1.417S9.748,20.693,10.531,20.693L10.531,20.693z"/>
	</g>
	<g>
		<path fill="#FFFFFF" d="M10.531,16.229h4.836l0,0c0.783,0,1.417-0.634,1.417-1.417s-0.634-1.417-1.417-1.417l0,0h-4.836l0,0
			c-0.783,0-1.417,0.634-1.417,1.417S9.748,16.229,10.531,16.229L10.531,16.229z"/>
	</g>
	<g>
		<path fill="#FFFFFF" d="M10.531,11.764h4.836l0,0c0.783,0,1.417-0.634,1.417-1.417S16.15,8.93,15.367,8.93l0,0h-4.836l0,0
			c-0.783,0-1.417,0.634-1.417,1.417S9.748,11.764,10.531,11.764L10.531,11.764z"/>
	</g>
	<g>
		<path fill="#FFFFFF" d="M10.531,7.299h4.836l0,0c0.783,0,1.417-0.634,1.417-1.417s-0.634-1.417-1.417-1.417l0,0h-4.836l0,0
			c-0.783,0-1.417,0.634-1.417,1.417S9.748,7.299,10.531,7.299L10.531,7.299z"/>
	</g>
	<g>
		<path fill="#FFFFFF" d="M10.531,2.834h4.836l0,0c0.783,0,1.417-0.634,1.417-1.417S16.15,0,15.367,0l0,0h-4.836l0,0
			C9.748,0,9.114,0.634,9.114,1.417S9.748,2.834,10.531,2.834L10.531,2.834z"/>
	</g>
	<g>
		<path fill="#FFFFFF" d="M19.646,29.623h4.836l0,0c0.783,0,1.417-0.634,1.417-1.417s-0.634-1.417-1.417-1.417l0,0h-4.836l0,0
			c-0.783,0-1.417,0.634-1.417,1.417S18.862,29.623,19.646,29.623L19.646,29.623z"/>
	</g>
	<g>
		<path fill="#FFFFFF" d="M19.646,25.158h4.836l0,0c0.783,0,1.417-0.634,1.417-1.417s-0.634-1.417-1.417-1.417l0,0h-4.836l0,0
			c-0.783,0-1.417,0.634-1.417,1.417S18.862,25.158,19.646,25.158L19.646,25.158z"/>
	</g>
	<g>
		<path fill="#FFFFFF" d="M19.646,20.693h4.836l0,0c0.783,0,1.417-0.634,1.417-1.417s-0.634-1.417-1.417-1.417l0,0h-4.836l0,0
			c-0.783,0-1.417,0.634-1.417,1.417S18.862,20.693,19.646,20.693L19.646,20.693z"/>
	</g>
	<g>
		<path fill="#FFFFFF" d="M28.76,29.623h4.836l0,0c0.783,0,1.417-0.634,1.417-1.417s-0.634-1.417-1.417-1.417l0,0H28.76l0,0
			c-0.783,0-1.417,0.634-1.417,1.417S27.977,29.623,28.76,29.623L28.76,29.623z"/>
	</g>
	<g>
		<path fill="#FFFFFF" d="M28.76,25.158h4.836l0,0c0.783,0,1.417-0.634,1.417-1.417s-0.634-1.417-1.417-1.417l0,0H28.76l0,0
			c-0.783,0-1.417,0.634-1.417,1.417S27.977,25.158,28.76,25.158L28.76,25.158z"/>
	</g>
	<g>
		<path fill="#FFFFFF" d="M28.76,20.693h4.836l0,0c0.783,0,1.417-0.634,1.417-1.417s-0.634-1.417-1.417-1.417l0,0H28.76l0,0
			c-0.783,0-1.417,0.634-1.417,1.417S27.977,20.693,28.76,20.693L28.76,20.693z"/>
	</g>
	<g>
		<path fill="#FFFFFF" d="M28.76,16.229h4.836l0,0c0.783,0,1.417-0.634,1.417-1.417s-0.634-1.417-1.417-1.417l0,0H28.76l0,0
			c-0.783,0-1.417,0.634-1.417,1.417S27.977,16.229,28.76,16.229L28.76,16.229z"/>
	</g>
	<g>
		<path fill="#FFFFFF" d="M28.76,11.764h4.836l0,0c0.783,0,1.417-0.634,1.417-1.417S34.379,8.93,33.596,8.93l0,0H28.76l0,0
			c-0.783,0-1.417,0.634-1.417,1.417S27.977,11.764,28.76,11.764L28.76,11.764z"/>
	</g>
	<g>
		<path fill="#FFFFFF" d="M28.76,7.299h4.836l0,0c0.783,0,1.417-0.634,1.417-1.417s-0.634-1.417-1.417-1.417l0,0H28.76l0,0
			c-0.783,0-1.417,0.634-1.417,1.417S27.977,7.299,28.76,7.299L28.76,7.299z"/>
	</g>
</g>
</svg>
