<?xml version="1.0" encoding="utf-8"?>
<!-- Generator: Adobe Illustrator 12.0.1, SVG Export Plug-In . SVG Version: 6.00 Build 51448)  -->
<!DOCTYPE svg PUBLIC "-//W3C//DTD SVG 1.1//EN" "http://www.w3.org/Graphics/SVG/1.1/DTD/svg11.dtd" [
	<!ENTITY ns_svg "http://www.w3.org/2000/svg">
	<!ENTITY ns_xlink "http://www.w3.org/1999/xlink">
]>
<svg  version="1.1" id="Layer_1" xmlns="&ns_svg;" xmlns:xlink="&ns_xlink;" width="35.208" height="30.174"
	 viewBox="0 0 35.208 30.174" overflow="visible" enable-background="new 0 0 35.208 30.174" xml:space="preserve">
<g>
	<path fill="#F6851F" d="M6.357,27.49c-1.013,1.011-2.66,1.009-3.673-0.003c-1.011-1.01-1.01-2.655,0-3.667
		c0,0.001,4.005-4.005,4.005-4.005c1.763-1.763,1.764-4.631,0.002-6.394c-1.768-1.763-4.638-1.764-6.399-0.002l0,0
		c-0.376,0.377-0.376,0.986,0,1.363c0.377,0.376,0.986,0.376,1.363,0l0,0c1.011-1.012,2.659-1.01,3.674,0.003
		c1.009,1.01,1.009,2.655-0.003,3.666l-4.005,4.006c-1.761,1.764-1.761,4.631,0,6.393c1.764,1.763,4.634,1.765,6.397,0.005l0,0
		c0.377-0.376,0.378-0.986,0.002-1.363S6.734,27.114,6.357,27.49L6.357,27.49z"/>
	<path fill="#FEDF00" d="M26.059,14.795c0,0-5.643-5.643-5.642-5.643c-0.126-0.125-0.281-0.189-0.438-0.182
		c-0.156,0.008-0.305,0.087-0.417,0.225c0,0-11.125,13.575-11.125,13.574c-0.279,0.342-0.251,0.915,0.061,1.227
		c0,0,0.064,0.064,0.165,0.165c-0.532,0.642-0.532,1.591,0.045,2.227c0.614,0.675,1.646,0.737,2.342,0.16
		c0.104,0.104,0.17,0.17,0.17,0.17c0.312,0.312,0.884,0.34,1.226,0.061c-0.001,0,13.571-11.129,13.572-11.129
		c0.137-0.112,0.216-0.261,0.224-0.417C26.249,15.075,26.184,14.92,26.059,14.795z M19.908,12.006l-8.981,10.902
		c-0.174,0.211-0.486,0.241-0.698,0.067c-0.211-0.174-0.241-0.486-0.067-0.698l8.981-10.902c0.174-0.211,0.486-0.241,0.698-0.067
		S20.082,11.794,19.908,12.006z"/>
	<path fill="#FFFFFF" d="M21.346,7.443c0.155,0.099,0.301,0.213,0.434,0.346c0,0,5.643,5.643,5.643,5.644
		c0.132,0.132,0.245,0.276,0.344,0.43c1.088,0.079,2.188-0.104,3.208-0.532L21.88,4.236C21.453,5.257,21.269,6.355,21.346,7.443z"/>
	<path fill="#FFFFFF" d="M33.181,11.858c2.706-2.708,2.702-7.117-0.008-9.828c-2.707-2.706-7.113-2.707-9.82-0.002
		c-0.393,0.394-0.724,0.823-1.001,1.277l9.554,9.554C32.359,12.581,32.789,12.251,33.181,11.858z"/>
</g>
</svg>
