<?xml version="1.0" encoding="utf-8"?>
<!-- Generator: Adobe Illustrator 12.0.1, SVG Export Plug-In . SVG Version: 6.00 Build 51448)  -->
<!DOCTYPE svg PUBLIC "-//W3C//DTD SVG 1.1//EN" "http://www.w3.org/Graphics/SVG/1.1/DTD/svg11.dtd" [
	<!ENTITY ns_svg "http://www.w3.org/2000/svg">
	<!ENTITY ns_xlink "http://www.w3.org/1999/xlink">
]>
<svg  version="1.1" id="Layer_1" xmlns="&ns_svg;" xmlns:xlink="&ns_xlink;" width="25.957" height="30.031"
	 viewBox="0 0 25.957 30.031" overflow="visible" enable-background="new 0 0 25.957 30.031" xml:space="preserve">
<path fill="#FFFFFF" d="M24.34,0H9.672C8.781,0,8.057,0.724,8.057,1.616v19.02c-1.797-1.05-4.404-0.58-6.246,1.263
	c-2.117,2.118-2.422,5.252-0.678,6.998c1.748,1.747,4.883,1.442,7-0.676c1.176-1.175,1.771-2.658,1.793-4.049
	c0.031-0.095,0.059-0.19,0.059-0.296V5.648h14.045v8.614c-1.797-1.023-4.379-0.551-6.209,1.279
	c-2.117,2.118-2.422,5.252-0.678,6.998c1.748,1.747,4.883,1.442,7-0.676c1.131-1.131,1.729-2.548,1.791-3.892
	c0.006-0.038,0.023-0.07,0.023-0.109V1.616C25.957,0.724,25.234,0,24.34,0z M23.15,4.554H10.895c-0.533,0-0.965-0.432-0.965-0.964
	s0.432-0.964,0.965-0.964H23.15c0.531,0,0.963,0.432,0.963,0.964S23.682,4.554,23.15,4.554z"/>
</svg>
