<?xml version="1.0" encoding="utf-8"?>
<!-- Generator: Adobe Illustrator 12.0.1, SVG Export Plug-In . SVG Version: 6.00 Build 51448)  -->
<!DOCTYPE svg PUBLIC "-//W3C//DTD SVG 1.1//EN" "http://www.w3.org/Graphics/SVG/1.1/DTD/svg11.dtd" [
	<!ENTITY ns_svg "http://www.w3.org/2000/svg">
	<!ENTITY ns_xlink "http://www.w3.org/1999/xlink">
]>
<svg  version="1.1" xmlns="&ns_svg;" xmlns:xlink="&ns_xlink;" width="86.333" height="86.25" viewBox="0 0 86.333 86.25"
	 overflow="visible" enable-background="new 0 0 86.333 86.25" xml:space="preserve">
<g id="Layer_1">
</g>
<g id="Layer_2">
</g>
<g id="Layer_4">
</g>
<g id="Layer_3" display="none">
	<path display="inline" fill="#696969" d="M86.333,74.25c0,6.627-5.373,12-12,12h-61c-6.627,0-12-5.373-12-12v-61
		c0-6.627,5.373-12,12-12h61c6.627,0,12,5.373,12,12V74.25z"/>
</g>
<g id="Layer_5" display="none">
	<path display="inline" fill="#040404" d="M85.333,67.25c0,9.941-8.059,18-18,18h-48c-9.941,0-18-8.059-18-18v-48
		c0-9.941,8.059-18,18-18h48c9.941,0,18,8.059,18,18V67.25z"/>
</g>
<g id="Layer_6">
	<g>
		<g>
			<path fill="#FFFFFF" d="M0,0v85.583h85.583V0H0z M84.333,65.806c0,10.187-8.258,18.444-18.444,18.444H19.777
				c-10.187,0-18.444-8.258-18.444-18.444V19.694C1.333,9.508,9.591,1.25,19.777,1.25h46.111c10.187,0,18.444,8.258,18.444,18.444
				V65.806z"/>
		</g>
	</g>
</g>
</svg>
