<?xml version="1.0" encoding="utf-8"?>
<!-- Generator: Adobe Illustrator 12.0.1, SVG Export Plug-In . SVG Version: 6.00 Build 51448)  -->
<!DOCTYPE svg PUBLIC "-//W3C//DTD SVG 1.1//EN" "http://www.w3.org/Graphics/SVG/1.1/DTD/svg11.dtd" [
	<!ENTITY ns_svg "http://www.w3.org/2000/svg">
	<!ENTITY ns_xlink "http://www.w3.org/1999/xlink">
]>
<svg  version="1.1" id="Layer_1" xmlns="&ns_svg;" xmlns:xlink="&ns_xlink;" width="320.417" height="594.617"
	 viewBox="0 0 320.417 594.617" overflow="visible" enable-background="new 0 0 320.417 594.617" xml:space="preserve">
<g>
	<g>
		<path fill="#FFB600" d="M317.74,295.517c-3.143-21.293-10.609-42.835-21.494-61.958c-4.067-7.147-8.586-13.999-13.572-20.325
			c-7.154-9.094-21.107-20.047-32.547-22.892c5.906,1.466,14.233,20.753,15.942,26.113c2.027,6.345,2.866,13.042,2.156,19.384
			c-0.987,8.645-4.884,16.645-12.737,22.221c-13.062,9.262-27.24,4.039-36.434-7.731c-0.971-1.252-1.799-2.549-2.621-3.853
			c-8.139-12.787-9.828-28.139-12.047-42.933c-5.434-36.542-35.745-61.967-47.252-96.106C145.313,72.416,151.069,29.084,174.654,0
			C131.26,20.643,91.862,67.291,91.667,116.974c-0.078,18.818,3.152,37.368,7.666,55.582c6.042,24.312,20.006,59.033-0.345,80.52
			c-8.544,9.032-25.236,12.196-35.495,4.551c-7.874-5.862-9.518-15.43-12.521-24.146c-7.363-21.484-21.293-36.886-43.163-42.034
			c8.215,3.36,11.654,17.186,12.946,25.124c5.433,33.442-12.726,76.101-16.257,92.685c-0.125,0.43-0.269,0.983-0.411,1.482
			C2.382,317.053,0,329.078,0,338.123c0,88.072,71.399,146.09,159.474,146.09c85.947,0,155.982-54.617,159.312-139.748
			C321.998,328.25,319.83,309.742,317.74,295.517z"/>
		<g>
			<path d="M159.458,283.413c-112.313,0-135.889,51.969-135.889,95.568c0,37.53,26.257,93.079,50.829,132.554
				c14.175,22.768,28.982,42.486,42.827,57.021c16.697,17.535,30.512,26.061,42.233,26.061c11.723,0,25.536-8.523,42.234-26.059
				c13.843-14.537,28.653-34.256,42.827-57.023c24.572-39.473,50.829-95.021,50.829-132.554
				C295.349,335.382,271.773,283.413,159.458,283.413z"/>
			<path d="M285.391,378.981c0,65.204-89.556,205.679-125.933,205.679c-36.375,0-125.931-140.475-125.931-205.679
				c0-65.203,56.381-85.61,125.931-85.61C229.009,293.371,285.391,313.778,285.391,378.981z"/>
			<path fill="#FFFFFF" d="M214.542,409.462c0.024,0.033,0.051,0.066,0.074,0.102c8.872-8.104,8.996-18.896,10.176-26.619
				c1.826-11.945-8.269-41.044-37.994-52.669l-0.254-0.099c-6.746-2.941-19.612-4.754-26.695-4.812
				c-0.002-0.003-0.004-0.005-0.004-0.005c-0.129,0-0.257,0.003-0.386,0.003s-0.256-0.003-0.386-0.003c0,0-0.002,0.003-0.004,0.005
				c-7.082,0.061-19.947,1.871-26.695,4.812l-0.253,0.099C102.394,341.901,92.299,371,94.125,382.945
				c1.179,7.723,1.303,18.516,10.175,26.619c0.026-0.033,0.05-0.066,0.076-0.102c3.013-3.967,3.035-7.477,3.62-11.973
				c0.358-2.762,1.757-5.172,3.282-7.506c-0.461,8.008-2.718,16.082-5.221,19.479c-0.025,0.033-0.049,0.066-0.074,0.102
				c-3.653,4.934-10.264,12.146,6.048,23.797c0.295,0.211,1.099,0.225,1.825,0.229c0.466,0.002,0.902,0.002,1.146,0.051
				c1.832,0.365,3.728,1.055,5.097,2.365c-0.186-0.008-0.401-0.01-0.627-0.012c1.272,4.121,2.647,10.268,2.503,14.49
				c-0.228,6.754-2.737,15.844-0.912,19.223c1.825,3.375,17.338,17.402,19.164,18.961c1.825,1.559,1.368,6.494,10.039,6.236
				c6.676-0.201,6.86-0.709,9.195-0.934c2.335,0.225,2.52,0.73,9.197,0.934c8.668,0.258,8.211-4.678,10.037-6.236
				c1.825-1.559,17.338-15.586,19.163-18.961c1.825-3.379-0.685-12.469-0.913-19.223c-0.143-4.225,1.232-10.369,2.506-14.49
				c-0.229,0.002-0.443,0.004-0.629,0.012c1.369-1.311,3.264-2,5.098-2.365c0.244-0.049,0.68-0.049,1.146-0.051
				c0.726-0.006,1.53-0.018,1.825-0.229c16.311-11.65,9.701-18.863,6.048-23.797c-0.024-0.033-0.05-0.066-0.075-0.102
				c-2.503-3.395-4.76-11.471-5.22-19.479c1.524,2.334,2.923,4.744,3.28,7.506C211.507,401.988,211.529,405.498,214.542,409.462z
				 M151.062,420.878c1.335-2.578,2.772-5.744,3.309-8.559c0.839-4.406,2.525-5.422,4.512-5.65h1.153
				c1.987,0.229,3.672,1.244,4.512,5.65c0.535,2.814,1.974,5.979,3.309,8.559c1.251,2.416,1.704,4.32,1.939,4.949
				c0.484,1.299,1.943,8.053-1.943,9.611c-3.891,1.557-5.59-1.238-7.777-1.238c-0.204,0-1.03,0-1.232,0
				c-2.188,0-3.888,2.795-7.777,1.238c-3.888-1.561-2.43-8.312-1.944-9.611C149.357,425.201,149.81,423.294,151.062,420.878z
				 M118.045,415.699c-4.416-2.857-4.936-16.365-2.598-20.521c2.338-4.155,10.65-10.391,21.298-6.562
				c5.269,1.893,8.248,3.772,9.915,5.977c1.702,2.25,2.034,4.838,2.034,8.119c0,0,0,1.299-0.26,4.676
				c-0.259,3.377-8.052,9.092-13.247,9.611c-3.7,0.371-8.587,1.002-12.688,0.303C120.844,417.019,119.314,416.519,118.045,415.699z
				 M193.5,440.191c-1.637,2.281-1.459,5.514-2.178,8.223c-1.398,5.285-0.631,11.213-5.609,14.086
				c-3.768,2.172-6.901,3.486-10.379,6.301c-4.19,3.391-10.418,3.096-15.863,2.979l0,0c-0.004,0-0.007,0-0.011,0s-0.005,0-0.009,0
				l0,0c-5.448,0.117-11.675,0.412-15.864-2.979c-3.479-2.814-6.611-4.129-10.378-6.301c-4.98-2.873-4.211-8.801-5.612-14.086
				c-0.718-2.709-0.54-5.941-2.178-8.223c-0.292-0.406-0.627-0.834-0.988-1.258c1.704,0.818,3.327,1.736,3.708,3.576
				c1.001,4.848,1.059,14.785,4.554,17.254c1.783,1.258,3.698,1.322,5.62,1.348c0.78,0.012,1.561,0.018,2.335,0.094
				c3.479,0.34,6.809,1.799,10.177,2.834c2.767,0.85,5.732,1.02,8.634,0.877c2.902,0.143,5.868-0.027,8.635-0.877
				c3.367-1.035,6.697-2.494,10.178-2.834c0.775-0.076,1.555-0.082,2.334-0.094c1.924-0.023,3.838-0.09,5.621-1.348
				c3.496-2.469,3.553-12.406,4.555-17.254c0.381-1.84,2.004-2.758,3.708-3.576C194.126,439.357,193.792,439.785,193.5,440.191z
				 M200.875,415.699c-1.272,0.82-2.801,1.32-4.457,1.602c-4.101,0.699-8.987,0.068-12.688-0.303
				c-5.193-0.521-12.986-6.234-13.247-9.611c-0.26-3.377-0.26-4.676-0.26-4.676c0-3.281,0.333-5.869,2.034-8.119
				c1.668-2.203,4.646-4.084,9.914-5.977c10.649-3.826,18.961,2.407,21.301,6.562C205.808,399.333,205.289,412.839,200.875,415.699z
				"/>
		</g>
	</g>
</g>
</svg>
