<?xml version="1.0" encoding="utf-8"?>
<!-- Generator: Adobe Illustrator 12.0.1, SVG Export Plug-In . SVG Version: 6.00 Build 51448)  -->
<!DOCTYPE svg PUBLIC "-//W3C//DTD SVG 1.1//EN" "http://www.w3.org/Graphics/SVG/1.1/DTD/svg11.dtd" [
	<!ENTITY ns_svg "http://www.w3.org/2000/svg">
	<!ENTITY ns_xlink "http://www.w3.org/1999/xlink">
]>
<svg  version="1.1" id="Layer_1" xmlns="&ns_svg;" xmlns:xlink="&ns_xlink;" width="271.779" height="311.204"
	 viewBox="0 0 271.779 311.204" overflow="visible" enable-background="new 0 0 271.779 311.204" xml:space="preserve">
<g>
	<g>
		<g>
			<path fill="#010101" d="M135.889,0C23.576,0,0,51.969,0,95.567c0,37.53,26.257,93.079,50.829,132.555
				c14.175,22.768,28.982,42.486,42.827,57.021c16.697,17.535,30.512,26.062,42.233,26.062c11.723,0,25.536-8.523,42.234-26.06
				c13.843-14.537,28.653-34.256,42.827-57.022c24.572-39.474,50.829-95.021,50.829-132.555C271.78,51.969,248.204,0,135.889,0z"/>
			<path fill="#010101" d="M261.822,95.567c0,65.204-89.556,205.68-125.933,205.68c-36.375,0-125.931-140.476-125.931-205.68
				c0-65.203,56.381-85.609,125.931-85.609C205.44,9.958,261.822,30.364,261.822,95.567z"/>
			<path fill="#FFFFFF" d="M190.974,126.049c0.023,0.033,0.051,0.066,0.074,0.103c8.871-8.104,8.995-18.896,10.176-26.619
				c1.826-11.945-8.27-41.045-37.994-52.67l-0.254-0.099c-6.746-2.94-19.612-4.754-26.695-4.812
				c-0.002-0.004-0.004-0.006-0.004-0.006c-0.129,0-0.257,0.004-0.386,0.004s-0.256-0.004-0.386-0.004c0,0-0.002,0.004-0.004,0.006
				c-7.082,0.061-19.947,1.871-26.695,4.812l-0.253,0.099C78.825,58.487,68.73,87.587,70.556,99.532
				c1.179,7.723,1.303,18.516,10.175,26.619c0.026-0.033,0.05-0.066,0.076-0.103c3.013-3.967,3.035-7.477,3.62-11.973
				c0.358-2.763,1.757-5.173,3.282-7.507c-0.461,8.009-2.718,16.083-5.221,19.479c-0.025,0.033-0.049,0.066-0.074,0.103
				c-3.653,4.934-10.264,12.146,6.048,23.797c0.295,0.211,1.099,0.225,1.825,0.229c0.466,0.002,0.902,0.002,1.146,0.051
				c1.832,0.365,3.728,1.056,5.097,2.365c-0.186-0.008-0.401-0.01-0.627-0.012c1.272,4.121,2.647,10.268,2.503,14.49
				c-0.228,6.754-2.737,15.844-0.912,19.223c1.825,3.375,17.338,17.402,19.164,18.961c1.825,1.559,1.368,6.494,10.039,6.236
				c6.676-0.201,6.86-0.709,9.195-0.935c2.335,0.226,2.52,0.73,9.197,0.935c8.668,0.258,8.211-4.679,10.037-6.236
				c1.825-1.559,17.338-15.586,19.163-18.961c1.825-3.379-0.685-12.469-0.913-19.223c-0.143-4.226,1.232-10.369,2.506-14.49
				c-0.229,0.002-0.443,0.004-0.629,0.012c1.369-1.311,3.264-2,5.098-2.365c0.244-0.049,0.681-0.049,1.146-0.051
				c0.727-0.006,1.53-0.018,1.825-0.229c16.312-11.65,9.7-18.863,6.048-23.797c-0.023-0.033-0.05-0.066-0.074-0.103
				c-2.504-3.395-4.761-11.471-5.221-19.479c1.523,2.334,2.923,4.744,3.279,7.507C187.938,118.575,187.96,122.085,190.974,126.049z
				 M127.493,137.465c1.335-2.578,2.772-5.744,3.309-8.559c0.839-4.406,2.525-5.422,4.512-5.65h1.154
				c1.986,0.229,3.672,1.244,4.512,5.65c0.535,2.813,1.974,5.979,3.309,8.559c1.251,2.416,1.704,4.32,1.939,4.949
				c0.483,1.299,1.942,8.053-1.943,9.61c-3.891,1.558-5.59-1.237-7.777-1.237c-0.203,0-1.03,0-1.231,0
				c-2.188,0-3.888,2.795-7.777,1.237c-3.888-1.561-2.43-8.312-1.944-9.61C125.788,141.788,126.241,139.881,127.493,137.465z
				 M94.476,132.286c-4.416-2.857-4.936-16.365-2.598-20.521c2.338-4.154,10.65-10.391,21.298-6.562
				c5.269,1.893,8.248,3.772,9.915,5.977c1.702,2.25,2.034,4.838,2.034,8.119c0,0,0,1.299-0.26,4.676
				c-0.259,3.377-8.052,9.093-13.247,9.611c-3.7,0.371-8.587,1.002-12.688,0.303C97.275,133.605,95.745,133.105,94.476,132.286z
				 M169.931,156.778c-1.637,2.28-1.459,5.514-2.178,8.223c-1.398,5.285-0.631,11.213-5.609,14.086
				c-3.768,2.172-6.9,3.486-10.379,6.301c-4.189,3.392-10.418,3.097-15.862,2.979l0,0c-0.004,0-0.007,0-0.011,0s-0.005,0-0.009,0
				l0,0c-5.448,0.117-11.675,0.412-15.864-2.979c-3.479-2.813-6.611-4.129-10.378-6.301c-4.98-2.873-4.211-8.801-5.612-14.086
				c-0.718-2.709-0.54-5.941-2.178-8.223c-0.292-0.406-0.627-0.834-0.988-1.259c1.704,0.818,3.327,1.736,3.708,3.576
				c1.001,4.849,1.059,14.785,4.554,17.254c1.783,1.259,3.698,1.322,5.62,1.349c0.78,0.012,1.561,0.018,2.335,0.094
				c3.479,0.34,6.809,1.799,10.177,2.834c2.767,0.85,5.732,1.02,8.634,0.877c2.902,0.143,5.869-0.027,8.634-0.877
				c3.367-1.035,6.697-2.494,10.179-2.834c0.774-0.076,1.556-0.082,2.334-0.094c1.924-0.023,3.838-0.09,5.621-1.349
				c3.496-2.469,3.553-12.405,4.556-17.254c0.381-1.84,2.004-2.758,3.707-3.576C170.558,155.944,170.224,156.372,169.931,156.778z
				 M177.306,132.286c-1.271,0.819-2.801,1.319-4.457,1.602c-4.101,0.699-8.986,0.068-12.688-0.303
				c-5.193-0.521-12.986-6.234-13.247-9.611c-0.26-3.377-0.26-4.676-0.26-4.676c0-3.281,0.333-5.869,2.034-8.119
				c1.668-2.203,4.646-4.084,9.914-5.977c10.648-3.826,18.961,2.406,21.301,6.562C182.239,115.92,181.72,129.426,177.306,132.286z"
				/>
		</g>
	</g>
</g>
</svg>
