<?xml version="1.0" encoding="utf-8"?>
<!-- Generator: Adobe Illustrator 12.0.1, SVG Export Plug-In . SVG Version: 6.00 Build 51448)  -->
<!DOCTYPE svg PUBLIC "-//W3C//DTD SVG 1.1//EN" "http://www.w3.org/Graphics/SVG/1.1/DTD/svg11.dtd" [
	<!ENTITY ns_svg "http://www.w3.org/2000/svg">
	<!ENTITY ns_xlink "http://www.w3.org/1999/xlink">
]>
<svg  version="1.1" id="Layer_1" xmlns="&ns_svg;" xmlns:xlink="&ns_xlink;" width="30.197" height="30.199"
	 viewBox="0 0 30.197 30.199" overflow="visible" enable-background="new 0 0 30.197 30.199" xml:space="preserve">
<g>
	<path fill="#FFFFFF" d="M26.906,5.704l-0.017,8.298c0,0.038-0.003,0.077-0.007,0.115c-0.113,0.92-0.39,1.798-0.831,2.628
		l-2.083,3.746l0.26,0.143c0.262,0.145,0.357,0.473,0.213,0.732l-2.276,4.123c-0.144,0.26-0.472,0.354-0.732,0.209l-0.625-0.346
		l-0.697,1.256c-0.133,0.238-0.435,0.324-0.675,0.191c-0.239-0.133-0.325-0.434-0.192-0.674l0.695-1.254l-0.65-0.359
		c-0.262-0.143-0.357-0.471-0.213-0.732l2.276-4.119c0.146-0.262,0.472-0.355,0.732-0.211l0.196,0.107
		c0.436-0.781,2.085-3.748,2.078-3.734c0.316-0.594,0.519-1.238,0.604-1.91l0.021-10.212C22.332,1.402,18.882,0,15.097,0
		C6.76,0,0,6.76,0,15.099c0,8.34,6.76,15.1,15.097,15.1c8.341,0,15.101-6.76,15.101-15.1C30.197,11.544,28.961,8.283,26.906,5.704z
		 M2.611,10.211C2.36,10.104,2.243,9.812,2.351,9.56c1.434-3.354,4.087-5.95,7.473-7.307c0.254-0.103,0.543,0.021,0.645,0.275
		c0.103,0.254-0.021,0.543-0.275,0.645c-3.14,1.259-5.601,3.665-6.93,6.777C3.155,10.202,2.863,10.318,2.611,10.211z M4.626,11.072
		c-0.252-0.107-0.368-0.399-0.261-0.651c1.204-2.817,3.432-4.996,6.271-6.135c0.254-0.102,0.543,0.022,0.646,0.276
		c0.102,0.254-0.022,0.543-0.276,0.646V5.207c-2.594,1.04-4.629,3.03-5.729,5.604C5.17,11.063,4.878,11.18,4.626,11.072z
		 M6.639,11.933c-0.252-0.107-0.368-0.399-0.261-0.651c0.974-2.278,2.775-4.04,5.074-4.962c0.254-0.103,0.543,0.021,0.645,0.275
		c0.103,0.254-0.021,0.543-0.275,0.645C9.77,8.063,8.16,9.637,7.29,11.672C7.183,11.924,6.891,12.04,6.639,11.933z M8.652,12.795
		c-0.252-0.107-0.368-0.399-0.261-0.651c0.743-1.739,2.12-3.085,3.877-3.789c0.254-0.103,0.543,0.021,0.645,0.275
		c0.103,0.254-0.021,0.543-0.275,0.645c-1.511,0.606-2.694,1.764-3.334,3.26C9.196,12.786,8.904,12.902,8.652,12.795z
		 M15.099,20.216c-2.824,0-5.116-2.291-5.116-5.118c0-2.826,2.292-5.116,5.116-5.116c2.826,0,5.116,2.29,5.116,5.116
		C20.215,17.925,17.925,20.216,15.099,20.216z"/>
	<circle fill="#FFFFFF" cx="15.099" cy="15.099" r="0.959"/>
</g>
</svg>
