<?xml version="1.0" encoding="utf-8"?>
<!-- Generator: Adobe Illustrator 12.0.1, SVG Export Plug-In . SVG Version: 6.00 Build 51448)  -->
<!DOCTYPE svg PUBLIC "-//W3C//DTD SVG 1.1//EN" "http://www.w3.org/Graphics/SVG/1.1/DTD/svg11.dtd" [
	<!ENTITY ns_svg "http://www.w3.org/2000/svg">
	<!ENTITY ns_xlink "http://www.w3.org/1999/xlink">
]>
<svg  version="1.1" id="Layer_1" xmlns="&ns_svg;" xmlns:xlink="&ns_xlink;" width="18.131" height="29.787"
	 viewBox="0 0 18.131 29.787" overflow="visible" enable-background="new 0 0 18.131 29.787" xml:space="preserve">
<g>
	<circle fill="#FFFFFF" cx="9.064" cy="10.189" r="1.43"/>
	<path fill="#FFFFFF" d="M9.062,16.833c-2.359,0-4.279,1.918-4.279,4.273c0,2.356,1.92,4.274,4.279,4.274
		c2.363,0,4.285-1.918,4.285-4.274C13.349,18.751,11.426,16.833,9.062,16.833z M9.064,22.521c-0.787,0-1.428-0.639-1.428-1.426
		c0-0.789,0.641-1.428,1.428-1.428c0.789,0,1.43,0.639,1.43,1.428C10.494,21.882,9.854,22.521,9.064,22.521z"/>
	<path fill="#F78F1E" d="M15.746,0H2.383C1.066,0,0,1.066,0,2.385v25.019c0,1.314,1.066,2.384,2.383,2.384h13.363
		c1.317,0,2.385-1.068,2.385-2.384V2.385C18.131,1.066,17.063,0,15.746,0z M9.064,2.688c0.75,0,1.359,0.607,1.359,1.357
		c0,0.749-0.609,1.357-1.359,1.357c-0.748,0-1.357-0.608-1.357-1.357S8.316,2.688,9.064,2.688z M9.064,6.945
		c1.791,0,3.248,1.455,3.248,3.244s-1.457,3.244-3.248,3.244c-1.789,0-3.246-1.455-3.246-3.244S7.275,6.945,9.064,6.945z
		 M9.062,27.197c-3.359,0-6.094-2.732-6.094-6.091c0-3.354,2.734-6.086,6.094-6.086c3.363,0,6.1,2.732,6.1,6.086
		C15.162,24.464,12.426,27.197,9.062,27.197z"/>
</g>
</svg>
