<?xml version="1.0" encoding="utf-8"?>
<!-- Generator: Adobe Illustrator 12.0.1, SVG Export Plug-In . SVG Version: 6.00 Build 51448)  -->
<!DOCTYPE svg PUBLIC "-//W3C//DTD SVG 1.1//EN" "http://www.w3.org/Graphics/SVG/1.1/DTD/svg11.dtd" [
	<!ENTITY ns_svg "http://www.w3.org/2000/svg">
	<!ENTITY ns_xlink "http://www.w3.org/1999/xlink">
]>
<svg  version="1.1" id="Layer_1" xmlns="&ns_svg;" xmlns:xlink="&ns_xlink;" width="20.68" height="29.785"
	 viewBox="0 0 20.68 29.785" overflow="visible" enable-background="new 0 0 20.68 29.785" xml:space="preserve">
<g>
	<path fill="#333333" d="M10.338,7.539c0.842,0,1.527-0.684,1.527-1.523c0-0.838-0.686-1.521-1.527-1.521
		c-0.84,0-1.523,0.684-1.523,1.521C8.814,6.855,9.498,7.539,10.338,7.539z"/>
	<path fill="#333333" d="M18.295,0H2.383C1.066,0,0,1.066,0,2.385v25.018c0,1.314,1.066,2.383,2.383,2.383h15.912
		c1.318,0,2.385-1.068,2.385-2.383V2.385C20.68,1.066,19.613,0,18.295,0z M10.338,2.68c1.842,0,3.342,1.498,3.342,3.336
		c0,1.84-1.5,3.338-3.342,3.338C8.498,9.354,7,7.855,7,6.016C7,4.178,8.498,2.68,10.338,2.68z M10.334,27.562
		c-4.49,0-8.129-3.637-8.129-8.129c0-4.488,3.639-8.127,8.129-8.127c4.494,0,8.141,3.639,8.141,8.127
		C18.475,23.926,14.828,27.562,10.334,27.562z"/>
	<path fill="#333333" d="M10.336,13.125c-3.479,0-6.311,2.83-6.311,6.309c0,3.48,2.832,6.312,6.311,6.312
		c3.482,0,6.316-2.832,6.316-6.312C16.652,15.955,13.818,13.125,10.336,13.125z M10.336,21.211c-0.979,0-1.775-0.797-1.775-1.777
		c0-0.977,0.797-1.773,1.775-1.773c0.982,0,1.781,0.797,1.781,1.773C12.117,20.414,11.318,21.211,10.336,21.211z"/>
</g>
</svg>
